<svg width="545" height="409" viewBox="0 0 545 409" fill="none" xmlns="http://www.w3.org/2000/svg">
<path d="M522.292 45.4167V360.676L499.583 363.333V0C411.134 2.70229 329.157 17.3037 272.455 52.5925C215.775 17.3037 133.888 2.70229 45.4167 0V363.333L22.7083 360.676V45.4167H0V386.042H205.669C239.255 386.042 242.934 408.75 272.455 408.75C302.066 408.75 305.631 386.042 339.262 386.042H545V45.4167H522.292ZM249.792 355.272C205.601 337.741 155.847 326.455 90.8333 321.573V47.9146C144.243 52.3881 204.284 63.2427 249.792 91.56V355.272ZM454.167 321.573C389.153 326.455 339.399 337.741 295.208 355.272V91.56C340.716 63.2427 400.757 52.3881 454.167 47.9146V321.573Z" fill="#818cf8"/>
</svg>
