<svg width="545" height="455" viewBox="0 0 545 455" fill="none" xmlns="http://www.w3.org/2000/svg">
<path d="M249.792 136.25H90.8333V113.542H249.792V136.25ZM249.792 181.667H90.8333V204.375H249.792V181.667ZM447.172 160.344C432.912 150.443 434.819 152.918 429.415 136.863C427.166 130.164 420.695 125.6 413.405 125.6H413.337C395.784 125.668 398.804 126.599 384.611 116.653C381.682 114.564 378.185 113.542 374.688 113.542C371.19 113.542 367.693 114.564 364.741 116.653C350.458 126.69 353.569 125.691 336.015 125.6H335.947C328.658 125.6 322.186 130.164 319.938 136.863C314.533 152.986 316.395 150.488 302.202 160.344C297.706 163.455 295.208 168.36 295.208 173.469L296.049 178.51C301.544 194.588 301.544 191.499 296.049 207.531L295.208 212.573C295.208 217.659 297.706 222.587 302.225 225.698C316.418 235.554 314.601 233.078 319.96 249.156C322.209 255.877 328.68 260.396 335.97 260.396H336.038C353.591 260.328 350.571 259.375 364.764 269.344C367.693 271.455 371.19 272.5 374.688 272.5C378.185 272.5 381.682 271.455 384.611 269.366C398.804 259.397 395.738 260.351 413.337 260.419H413.405C420.695 260.419 427.166 255.9 429.415 249.179C434.819 233.101 432.912 235.576 447.172 225.721C451.669 222.61 454.167 217.659 454.167 212.573L453.326 207.531C447.831 191.409 447.876 194.52 453.326 178.51L454.167 173.469C454.167 168.36 451.669 163.409 447.172 160.344ZM374.688 227.083C355.885 227.083 340.625 211.823 340.625 193.021C340.625 174.196 355.885 158.958 374.688 158.958C393.49 158.958 408.75 174.196 408.75 193.021C408.75 211.823 393.49 227.083 374.688 227.083ZM402.869 295.39L403.345 295.208H431.458V454.167L375.164 420.127L317.917 454.167V295.208H345.871C355.295 301.816 361.539 306.562 374.688 306.562C385.678 306.562 395.829 301.953 402.869 295.39ZM0 0V386.042H272.5V340.625H45.4167V45.4167H499.583V340.625H476.875V386.042H545V0H0ZM181.667 249.792H90.8333V272.5H181.667V249.792Z" fill="#818cf8"/>
</svg>
