<svg width="397" height="397" viewBox="0 0 397 397" fill="none" xmlns="http://www.w3.org/2000/svg">
<path fill-rule="evenodd" clip-rule="evenodd" d="M165.417 380.458C165.417 362.18 180.221 347.375 198.5 347.375H231.583C240.35 347.375 248.77 350.865 254.973 357.068C261.176 363.272 264.667 371.691 264.667 380.458V397H165.417V380.458ZM297.75 380.458C297.75 362.18 312.555 347.375 330.833 347.375H363.917C372.684 347.375 381.103 350.865 387.307 357.068C393.51 363.272 397 371.691 397 380.458V397H297.75V380.458ZM111.805 148.875C122.541 148.875 133.194 145.352 139.794 141.663C152.283 134.715 184.373 114.485 197.441 106.528C201.014 104.361 205.629 105.155 208.26 108.398L208.392 108.579C211.121 111.954 210.807 116.834 207.681 119.828C197.392 129.703 167.269 158.337 151.935 172.976C143.3 181.23 138.338 192.545 137.825 204.472C136.254 240.979 133.508 318.808 132.35 350.584C132.069 358.028 125.948 363.917 118.504 363.917C111.16 363.917 105.486 358.177 104.659 350.882C102.823 334.654 99.2169 296.625 97.6124 281.208C96.9507 274.856 92.9807 271.068 87.9355 271.035C82.9068 271.019 79.2842 274.774 78.8541 281.109C77.8451 296.344 74.4706 334.836 73.2134 350.915C72.651 358.226 66.6464 363.917 59.3184 363.917C51.8416 363.917 45.6715 358.011 45.3738 350.551C43.7692 311.81 39.2699 202.271 39.2699 202.271L17.9808 240.814C15.665 244.999 10.6198 246.835 6.1535 245.114H6.13696C1.52183 243.328 -0.975958 238.316 0.363917 233.568L20.9417 160.901C22.9598 153.788 29.4607 148.875 36.8548 148.875H111.805ZM215.042 264.667C235.586 264.667 252.26 281.341 252.26 301.885C252.26 322.43 235.586 339.104 215.042 339.104C194.497 339.104 177.823 322.43 177.823 301.885C177.823 281.341 194.497 264.667 215.042 264.667ZM347.375 264.667C367.92 264.667 384.594 281.341 384.594 301.885C384.594 322.43 367.92 339.104 347.375 339.104C326.83 339.104 310.156 322.43 310.156 301.885C310.156 281.341 326.83 264.667 347.375 264.667ZM397 248.125H165.417V215.042H281.208V198.5H330.833V215.042H363.917V33.0833H198.5H33.0833V105.139L0 138.222V0H397V248.125ZM281.208 165.417H231.583V148.875H281.208V165.417ZM88.8949 66.1667C109.423 66.1667 126.114 82.8407 126.114 103.385C126.114 123.93 109.423 140.604 88.8949 140.604C68.3502 140.604 51.6762 123.93 51.6762 103.385C51.6762 82.8407 68.3502 66.1667 88.8949 66.1667ZM330.833 132.333H231.583V115.792H330.833V132.333ZM330.833 99.25H231.583V82.7083H330.833V99.25Z" fill="#6366f1"/>
</svg>
