<svg width="410" height="410" viewBox="0 0 410 410" fill="none" xmlns="http://www.w3.org/2000/svg">
<path d="M153.707 238.917C153.877 257.776 138.673 273.218 119.779 273.338C100.902 273.492 85.5264 258.305 85.4239 239.446C85.2531 220.57 100.44 205.196 119.283 205.008C138.178 204.889 153.604 220.092 153.707 238.917ZM136.999 170.826C118.139 170.963 102.695 155.794 102.576 136.884C102.422 118.042 117.558 102.65 136.469 102.531C155.295 102.36 170.773 117.512 170.841 136.388C171.046 155.298 155.808 170.655 136.999 170.826ZM273.342 102.258C273.411 121.082 258.292 136.559 239.432 136.679C220.537 136.849 205.128 121.663 205.008 102.804C204.82 83.911 220.008 68.5368 238.919 68.3831C257.728 68.2806 273.172 83.4327 273.342 102.258ZM68.3404 372.963C146.702 379.454 118.634 296.228 191.137 295.46L222.536 321.664C230.36 416.249 114.654 437.346 68.3404 372.963ZM308.62 251.421C332.998 213.174 408.49 84.9018 408.49 84.9018C414.52 74.2594 401.161 63.1559 391.833 71.0138C391.833 71.0138 279.561 168.623 246.436 199.559C220.264 224.021 220.144 235.193 211.671 275.524L240.371 299.44C278.416 283.809 289.367 281.674 308.62 251.421ZM92.9919 333.519C57.3899 302.429 34.5664 257.007 34.1734 206.306C33.4218 112.182 109.443 34.9699 203.642 34.2012C269.208 33.8424 314.326 66.7432 314.616 93.0842L343.026 68.2123C325.772 30.2381 271.583 -0.886102 203.351 0.0192655C90.2073 0.958798 -0.881899 93.3917 0.00644276 206.58C0.399363 256.324 18.5079 301.729 48.2331 337.004C64.5991 345.409 84.5014 342.624 92.9919 333.519ZM311.609 300.96C329.701 334.612 288.53 358.528 251.048 369.153C245.855 384.732 237.33 398.552 227.576 408.631C317.349 398.535 382.369 335.108 334.621 273.867C326.78 285.569 319.297 294.315 311.609 300.96Z" fill="#8626F9"/>
</svg>
