<svg width="358" height="430" viewBox="0 0 358 430" fill="none" xmlns="http://www.w3.org/2000/svg">
<path fill-rule="evenodd" clip-rule="evenodd" d="M358 0V257.749C358 300.588 239.001 430 182.383 430H0V0H358ZM167.58 394.167C241.972 394.167 214.8 286.667 214.8 286.667C214.8 286.667 322.2 316.229 322.2 242.645V35.8333H35.8V394.167H167.58ZM179 322.5V340.417H89.5V322.5H179ZM89.5 286.667H179V304.583H89.5V286.667ZM89.5 250.833H268.5V268.75H89.5V250.833ZM89.5 215H268.5V232.917H89.5V215ZM155.569 158.132L118.784 158.15L111.803 179.149L89.5 179.167L127.323 77.2387L146.762 77.2208L184.943 179.095L162.639 179.113L155.569 158.132ZM233.846 122.03L259.085 122.012L259.103 140.27L233.863 140.287L233.881 168.847L214.657 168.865L214.639 140.305L189.328 140.323L189.31 122.066L214.621 122.048L214.603 94.6717H233.828L233.846 122.03ZM124.441 141.147L149.895 141.13L137.06 102.985L124.441 141.147Z" fill="#818cf8"/>
</svg>
