<svg width="30" height="30" viewBox="0 0 30 30" fill="none" xmlns="http://www.w3.org/2000/svg">
<path d="M15 22.5C15 23.3284 15.6716 24 16.5 24H22.5C23.3284 24 24 23.3284 24 22.5V16.5C24 15.6716 23.3284 15 22.5 15H21V21H15V22.5Z" fill="#4A5CFF"/>
<path d="M13.5 6C14.3284 6 15 6.67156 15 7.5V9H9V15H7.5C6.67156 15 6 14.3284 6 13.5V7.5C6 6.67156 6.67156 6 7.5 6H13.5Z" fill="#4A5CFF"/>
<path fill-rule="evenodd" clip-rule="evenodd" d="M4.5 0C2.01472 0 0 2.01472 0 4.5V25.5C0 27.9854 2.01472 30 4.5 30H25.5C27.9854 30 30 27.9854 30 25.5V4.5C30 2.01472 27.9854 0 25.5 0H4.5ZM25.5 3H4.5C3.67156 3 3 3.67158 3 4.5V25.5C3 26.3284 3.67158 27 4.5 27H25.5C26.3284 27 27 26.3284 27 25.5V4.5C27 3.67156 26.3284 3 25.5 3Z" fill="#4A5CFF"/>
</svg>
