<svg width="60" height="60" viewBox="0 0 60 60" fill="none" xmlns="http://www.w3.org/2000/svg">
<circle cx="30" cy="30" r="30" fill="#4A5CFF"/>
<path d="M30 37.5C30 38.3284 30.6716 39 31.5 39H37.5C38.3284 39 39 38.3284 39 37.5V31.5C39 30.6716 38.3284 30 37.5 30H36V36H30V37.5Z" fill="white"/>
<path d="M28.5 21C29.3284 21 30 21.6716 30 22.5V24H24V30H22.5C21.6716 30 21 29.3284 21 28.5V22.5C21 21.6716 21.6716 21 22.5 21H28.5Z" fill="white"/>
<path fill-rule="evenodd" clip-rule="evenodd" d="M19.5 15C17.0147 15 15 17.0147 15 19.5V40.5C15 42.9854 17.0147 45 19.5 45H40.5C42.9854 45 45 42.9854 45 40.5V19.5C45 17.0147 42.9854 15 40.5 15H19.5ZM40.5 18H19.5C18.6716 18 18 18.6716 18 19.5V40.5C18 41.3284 18.6716 42 19.5 42H40.5C41.3284 42 42 41.3284 42 40.5V19.5C42 18.6716 41.3284 18 40.5 18Z" fill="white"/>
</svg>
