<svg width="250" height="200" viewBox="0 0 250 200" fill="none" xmlns="http://www.w3.org/2000/svg">
<g clip-path="url(#clip0_578_108)">
<path d="M103.741 97.7584C107.13 97.7584 108.641 99.9563 109.144 101.925L113.906 100.185C112.991 96.6138 109.694 92.8592 103.696 92.8592C97.2854 92.8592 92.2946 97.8042 92.2946 104.672C92.2946 111.449 97.2854 116.531 103.833 116.531C109.694 116.531 113.036 112.731 114.089 109.251L109.419 107.557C108.915 109.251 107.313 111.678 103.833 111.678C100.491 111.678 97.6059 109.16 97.6059 104.672C97.6059 100.185 100.491 97.7584 103.741 97.7584ZM122.286 102.749C122.378 99.9105 123.98 97.7127 126.911 97.7127C130.253 97.7127 131.49 99.9105 131.49 102.658V115.845H136.801V101.742C136.801 96.8427 134.145 92.905 128.651 92.905C126.316 92.905 123.797 93.7291 122.286 95.698V82.6943H116.975V115.845H122.286V102.749ZM140.062 109.801C140.062 113.326 142.946 116.531 147.617 116.531C151.234 116.531 153.432 114.7 154.485 113.006C154.485 114.791 154.668 115.707 154.714 115.845H159.659C159.613 115.616 159.384 114.288 159.384 112.273V101.193C159.384 96.7511 156.774 92.8592 149.906 92.8592C144.412 92.8592 140.932 96.2932 140.52 100.139L145.373 101.238C145.602 98.9947 147.159 97.209 149.952 97.209C152.882 97.209 154.164 98.72 154.164 100.597C154.164 101.376 153.798 102.017 152.516 102.2L146.793 103.07C142.992 103.619 140.062 105.817 140.062 109.801ZM148.624 112.365C146.518 112.365 145.373 110.991 145.373 109.48C145.373 107.649 146.701 106.733 148.349 106.458L154.164 105.588V106.595C154.164 110.945 151.6 112.365 148.624 112.365ZM184.852 93.546H177.801L169.239 102.566V82.6943H163.973V115.845H169.239V109.617L171.986 106.733L178.534 115.845H185.036L175.695 102.978L184.852 93.546ZM200.097 93.4086C199.868 93.3628 199.319 93.2713 198.678 93.2713C195.747 93.2713 193.275 94.6907 192.222 97.1174V93.546H187.048V115.845H192.359V105.222C192.359 101.055 194.236 98.6742 198.357 98.6742C198.907 98.6742 199.502 98.72 200.097 98.8116V93.4086ZM201.371 109.801C201.371 113.326 204.255 116.531 208.926 116.531C212.543 116.531 214.741 114.7 215.794 113.006C215.794 114.791 215.977 115.707 216.023 115.845H220.968C220.922 115.616 220.693 114.288 220.693 112.273V101.193C220.693 96.7511 218.083 92.8592 211.215 92.8592C205.72 92.8592 202.241 96.2932 201.828 100.139L206.682 101.238C206.911 98.9947 208.468 97.209 211.261 97.209C214.191 97.209 215.473 98.72 215.473 100.597C215.473 101.376 215.107 102.017 213.825 102.2L208.101 103.07C204.301 103.619 201.371 105.817 201.371 109.801ZM209.933 112.365C207.827 112.365 206.682 110.991 206.682 109.48C206.682 107.649 208.01 106.733 209.658 106.458L215.473 105.588V106.595C215.473 110.945 212.909 112.365 209.933 112.365Z" fill="white"/>
<path d="M78.4429 100.297C78.4429 86.6434 67.3747 75.5752 53.7214 75.5752C40.0682 75.5752 29 86.6434 29 100.297C29 113.95 40.0682 125.018 53.7214 125.018C67.3747 125.018 78.4429 113.95 78.4429 100.297Z" fill="url(#paint0_linear_578_108)"/>
<path d="M42.3819 101.353L59.2332 84.6173C59.548 84.3046 60.0547 84.6851 59.8421 85.0746L53.5702 96.57C53.4301 96.8262 53.6158 97.139 53.9078 97.139H64.7468C65.096 97.139 65.2645 97.5667 65.0092 97.8051L46.0155 115.532C45.6749 115.85 45.168 115.402 45.4414 115.025L54.4327 102.621C54.617 102.367 54.4354 102.01 54.1212 102.01H42.653C42.3096 102.01 42.1382 101.595 42.3819 101.353Z" fill="white"/>
</g>
<defs>
<linearGradient id="paint0_linear_578_108" x1="53.7214" y1="75.5752" x2="53.7214" y2="125.018" gradientUnits="userSpaceOnUse">
<stop stop-color="#7BCBD4"/>
<stop offset="1" stop-color="#29C6B7"/>
</linearGradient>
<clipPath id="clip0_578_108">
<rect width="192" height="49.4429" fill="white" transform="translate(29 75.5752)"/>
</clipPath>
</defs>
</svg>
