<svg width="250" height="200" viewBox="0 0 250 200" fill="none" xmlns="http://www.w3.org/2000/svg">
<path d="M61 85.418H83.4789V94.8182H70.4003V104.218H83.4789V113.619H61V85.418Z" fill="black"/>
<path d="M87.9746 85.418H110.453V93.5921H97.3749V95.2269H110.453V114.027H87.9746V105.445H101.053V103.81H87.9746V85.418Z" fill="black"/>
<path d="M114.949 85.418H137.428V93.5921H124.35V95.2269H137.428V114.027H114.949V105.445H128.028V103.81H114.949V85.418Z" fill="black"/>
<path d="M165.669 125.62L147.081 120.46L142.938 74H188.454L184.308 120.453L165.669 125.62Z" fill="#264DE4"/>
<path d="M180.758 117.448L184.301 77.752H165.696V121.623L180.758 117.448Z" fill="#2965F1"/>
<path d="M152.434 94.9814L152.945 100.679H165.696V94.9814H152.434Z" fill="#EBEBEB"/>
<path d="M151.408 83.4492L151.926 89.1474H165.696V83.4492H165.677H151.408Z" fill="#EBEBEB"/>
<path d="M165.696 109.782L165.671 109.788L159.325 108.075L158.92 103.53H155.836H153.2L153.998 112.477L165.67 115.717L165.696 115.71V109.782Z" fill="#EBEBEB"/>
<path d="M178.922 94.9823L179.951 83.4492H165.677V89.1474H173.706L173.187 94.9823H165.677V100.68H172.693L172.032 108.07L165.677 109.786V115.714L177.358 112.476L177.444 111.514L178.783 96.5125L178.922 94.9823Z" fill="white"/>
</svg>
