<svg width="250" height="200" viewBox="0 0 250 200" fill="none" xmlns="http://www.w3.org/2000/svg">
<path d="M55.3096 76.8545C56.1993 80.2218 59.0804 83.2273 62.1938 86.3456L62.854 87.0058C67.7743 91.9223 73.281 97.5077 73.281 105.842C73.281 112.262 69.8557 118.195 64.2955 121.405C58.7353 124.615 51.8849 124.615 46.3247 121.405C40.7645 118.195 37.3392 112.262 37.3392 105.842C37.3392 97.6755 42.6261 92.149 47.4664 87.3046L47.7652 87.0058L47.9141 86.857C51.2179 83.5541 54.3712 80.4055 55.3096 76.8545ZM178.228 103.738C179.317 109.615 175.749 115.354 169.996 116.977C164.566 118.299 162.12 114.082 161.675 112.975C161.629 112.86 161.587 112.735 161.397 112.737C161.2 112.739 161.179 112.942 161.176 112.972L161.176 112.975L161.175 115.919L161.173 115.917V123.777H155.29V105.844C155.291 99.8669 159.846 94.8748 165.798 94.3282C171.75 93.7816 177.139 97.8606 178.228 103.738ZM55.3093 103.809C55.3093 103.809 54.1809 105.036 52.9992 106.348L52.834 106.532C51.9802 107.482 51.1246 108.449 50.67 109.004C49.6971 110.145 49.1523 111.588 49.1295 113.087C49.1295 114.726 49.7806 116.298 50.9397 117.457C52.0988 118.616 53.6709 119.268 55.3101 119.268C58.7236 119.268 61.4908 116.5 61.4908 113.087C61.504 111.576 60.9509 110.115 59.9403 108.991C59.4824 108.481 58.6644 107.566 57.8419 106.645L57.6775 106.461C56.4727 105.112 55.3093 103.809 55.3093 103.809ZM193.278 94.3284C199.171 94.8697 203.694 99.7678 203.784 105.665L203.786 105.844V116.592H197.903L197.9 112.975C197.9 112.975 197.891 112.739 197.678 112.736C197.488 112.735 197.447 112.86 197.401 112.975C196.956 114.082 194.509 118.299 189.08 116.976C183.328 115.353 179.759 109.614 180.849 103.737C181.938 97.8603 187.326 93.7817 193.278 94.3284ZM153.211 94.6949L153.21 105.681C153.21 112.026 149.07 117.168 142.726 117.168C136.445 117.168 132.385 112.128 132.304 105.871L132.303 105.681L132.304 94.7053H138.161V105.681C138.161 108.892 139.55 111.489 142.762 111.489C145.934 111.489 147.316 108.954 147.349 105.797L147.349 105.681L147.34 94.6949H153.211ZM212 88.0002V116.601H206.157V88.0002H212ZM127.528 94.4561C128.31 94.6334 129.066 94.9101 129.776 95.2793L129.969 95.3823V102.037L129.965 102.033C129.954 102.022 129.92 101.991 129.863 101.943L129.816 101.904C129.438 101.596 128.341 100.826 126.338 100.352C121.347 99.1716 118.748 103.7 118.696 104.728L118.695 104.758V116.582H112.828V94.738H118.062L118.687 98.5656C118.687 98.5656 118.708 98.7645 118.892 98.7684C119.115 98.774 119.118 98.6974 119.182 98.5656C119.315 98.2974 122.492 93.2936 127.528 94.4561ZM94.9355 87.9888C103.606 87.9888 110.183 89.58 110.183 102.267C110.183 114.833 103.217 116.546 94.4485 116.546H87.7744V87.9888H94.9355ZM192.216 99.991C189.848 99.9908 187.713 101.417 186.806 103.605C185.9 105.793 186.401 108.311 188.076 109.985C189.75 111.66 192.269 112.161 194.456 111.254C196.644 110.347 198.07 108.212 198.07 105.844C198.069 102.612 195.448 99.9917 192.216 99.991ZM166.86 99.9909C163.628 99.9918 161.008 102.612 161.007 105.844C161.007 108.212 162.433 110.347 164.621 111.254C166.808 112.16 169.327 111.66 171.001 109.985C172.676 108.311 173.177 105.792 172.27 103.604C171.364 101.417 169.228 99.9904 166.86 99.9909ZM96.2028 92.9393L93.6828 92.939V111.591L96.1052 111.653C101.074 111.653 104.274 111.201 104.274 102.267C104.274 93.7856 101.505 92.955 96.2028 92.9393ZM55.3095 87.1935C55.3095 87.1935 55.3087 87.1942 55.3073 87.1957L55.257 87.246C55.216 87.2869 55.1524 87.3505 55.0707 87.4322L54.5956 87.907C54.4487 88.0539 54.2863 88.2162 54.1156 88.3868L53.2783 89.224C53.1251 89.3772 52.9742 89.5281 52.8302 89.6722L52.4868 90.0157C52.4652 90.0373 52.4439 90.0586 52.4229 90.0796L52.0837 90.4192C52.0507 90.4521 52.0196 90.4833 51.9904 90.5126L51.9587 90.5442C51.2713 91.2286 49.8861 92.5073 51.5539 94.3094C52.4204 95.2458 54.9818 97.9397 57.6447 100.779L58.0003 101.158C61.1435 104.513 64.3293 107.971 64.9546 108.896C65.4919 109.691 65.5696 110.064 66.2966 110.037C66.7045 110.022 67.0066 109.536 67.1399 109.245C67.7638 107.88 68.8221 103.745 65.7514 98.9662C63.6327 95.6688 59.4664 91.3169 57.0869 88.9355L56.8846 88.7335C55.9294 87.7817 55.3095 87.1935 55.3095 87.1935ZM47.3532 95.5191C39.8089 102.982 43.8755 109.992 44.9774 110.029C45.0916 110.033 45.2819 110.047 45.4122 109.683C46.0433 107.923 51.1209 102.831 52.3122 101.609C52.4074 101.533 52.4654 101.42 52.4718 101.298C52.4782 101.177 52.4322 101.058 52.3455 100.972L47.3532 95.5191Z" fill="#009DDE"/>
</svg>
