<svg width="250" height="200" viewBox="0 0 250 200" fill="none" xmlns="http://www.w3.org/2000/svg">
<path d="M87.1406 80.0146V111.071L91.1292 111.086V96.304H100.766V92.3915H91.1292V83.9271H103.674V80.0146H87.1406ZM110.874 86.3173C112.321 86.3173 113.478 85.145 113.478 83.714C113.478 82.283 112.305 81.1108 110.874 81.1108C109.428 81.1108 108.271 82.283 108.271 83.714C108.271 85.145 109.443 86.3173 110.874 86.3173ZM108.85 90.2298V111.071H112.838V90.2298H108.85Z" fill="white"/>
<path fill-rule="evenodd" clip-rule="evenodd" d="M127.651 89.6221C122.338 89.6221 118.638 94.1131 118.638 99.4414C118.638 104.77 122.338 109.261 127.651 109.261C130.086 109.261 132.081 108.317 133.542 106.794V109.55C133.542 113.006 130.832 115.883 127.285 115.883C126.006 115.883 124.743 115.396 123.738 114.696L121.729 118.167C123.327 119.202 125.23 119.795 127.27 119.795C132.933 119.795 137.516 115.213 137.516 109.55V90.231H133.542V92.0883C132.081 90.5659 130.086 89.6221 127.651 89.6221ZM122.642 99.4414C122.642 96.1378 125.169 93.5346 128.092 93.5346C131.015 93.5346 133.542 96.1378 133.542 99.4414C133.542 102.745 131.015 105.348 128.092 105.348C125.169 105.348 122.642 102.745 122.642 99.4414Z" fill="white"/>
<path d="M151.933 93.5346C149.573 93.5346 147.655 95.5441 147.655 97.9038V111.072H143.667V90.231H147.655V92.134C148.827 90.6268 150.548 89.6221 152.801 89.6221C155.602 89.6221 157.749 91.0074 158.997 93.1387C160.382 91.0835 162.635 89.6221 165.36 89.6221C169.912 89.6221 172.744 93.291 172.759 97.8277V111.072H168.771V97.8885C168.771 95.5289 166.852 93.5193 164.493 93.5193C162.133 93.5193 160.215 95.5289 160.215 97.8885V111.072H156.226V97.8885C156.211 95.5289 154.293 93.5346 151.933 93.5346Z" fill="white"/>
<path fill-rule="evenodd" clip-rule="evenodd" d="M194.042 92.5907C192.261 90.7486 189.825 89.6221 187.008 89.6221C181.071 89.6221 176.839 94.6611 176.839 100.659C176.839 106.657 181.056 111.696 187.008 111.696C189.825 111.696 192.261 110.555 194.042 108.728V111.072H198.03V90.231H194.042V92.5907ZM180.843 100.659C180.843 96.6859 183.888 93.5346 187.45 93.5346C190.997 93.5346 194.057 96.6706 194.057 100.659C194.057 104.633 191.012 107.784 187.45 107.784C183.888 107.769 180.843 104.633 180.843 100.659Z" fill="white"/>
<path d="M65.2031 100.141C65.2031 96.442 68.2022 93.4277 71.9168 93.4277C75.6161 93.4277 78.6304 96.4268 78.6304 100.141C78.6304 103.841 75.6314 106.855 71.9168 106.855C68.2174 106.855 65.2031 103.841 65.2031 100.141Z" fill="#1ABCFE"/>
<path d="M51.7913 113.553C51.7913 109.853 54.7903 106.839 58.5049 106.839H65.2186V113.553C65.2186 117.252 62.2195 120.266 58.5049 120.266C54.7903 120.266 51.7913 117.267 51.7913 113.553Z" fill="#0ACF83"/>
<path d="M65.2031 80.0152V93.4273H71.9168C75.6161 93.4273 78.6304 90.4282 78.6304 86.7137C78.6304 83.0143 75.6314 80 71.9168 80H65.2031V80.0152Z" fill="#FF7262"/>
<path d="M51.7913 86.7283C51.7913 90.4277 54.7903 93.442 58.5049 93.442H65.2186V80.0146H58.5049C54.7903 80.0146 51.7913 83.0137 51.7913 86.7283Z" fill="#F24E1E"/>
<path d="M51.7913 100.141C51.7913 103.841 54.7903 106.855 58.5049 106.855H65.2186V93.4277H58.5049C54.7903 93.4277 51.7913 96.442 51.7913 100.141Z" fill="#A259FF"/>
</svg>
