<svg width="250" height="200" viewBox="0 0 250 200" fill="none" xmlns="http://www.w3.org/2000/svg">
<path d="M137.593 91.884C134.835 91.884 132.781 93.2384 132.781 96.4978C132.781 98.9536 134.134 100.659 137.445 100.659C140.25 100.659 142.156 99.0055 142.156 96.3964C142.156 93.4394 140.451 91.884 137.593 91.884ZM132.078 114.899C131.426 115.7 130.775 116.552 130.775 117.556C130.775 119.56 133.331 120.163 136.841 120.163C139.749 120.163 143.711 119.959 143.711 117.256C143.711 115.648 141.805 115.549 139.397 115.398L132.078 114.899ZM146.919 92.0355C147.82 93.1888 148.774 94.7938 148.774 97.0998C148.774 102.665 144.412 105.923 138.096 105.923C136.49 105.923 135.036 105.723 134.134 105.473L132.479 108.129L137.392 108.43C146.067 108.983 151.179 109.234 151.179 115.899C151.179 121.666 146.116 124.923 137.392 124.923C128.318 124.923 124.858 122.617 124.858 118.657C124.858 116.4 125.861 115.2 127.616 113.542C125.961 112.843 125.41 111.59 125.41 110.236C125.41 109.132 125.961 108.129 126.865 107.176C127.767 106.225 128.769 105.271 129.973 104.168C127.516 102.965 125.661 100.358 125.661 96.647C125.661 90.8822 129.472 86.9229 137.141 86.9229C139.297 86.9229 140.601 87.121 141.755 87.424H151.532V91.6841L146.919 92.0355Z" fill="#2F2707"/>
<path d="M160.352 82.9252C157.494 82.9252 155.84 81.2695 155.84 78.4104C155.84 75.5554 157.494 74 160.352 74C163.26 74 164.915 75.5554 164.915 78.4104C164.915 81.2695 163.26 82.9252 160.352 82.9252ZM153.883 113.055V109.096L156.441 108.746C157.144 108.645 157.243 108.495 157.243 107.741V93.0013C157.243 92.4512 157.093 92.0986 156.59 91.9494L153.883 90.996L154.435 86.9364H164.814V107.741C164.814 108.545 164.862 108.645 165.616 108.746L168.174 109.096V113.055H153.883Z" fill="#2F2707"/>
<path d="M188 111.111C185.843 112.163 182.685 113.115 179.826 113.115C173.86 113.115 171.605 110.712 171.605 105.043V91.9083C171.605 91.6082 171.605 91.4072 171.202 91.4072H167.693V86.9449C172.107 86.4425 173.86 84.2362 174.411 78.7715H179.175V85.893C179.175 86.2426 179.175 86.3941 179.577 86.3941H186.645V91.4072H179.175V103.389C179.175 106.347 179.878 107.499 182.584 107.499C183.989 107.499 185.442 107.149 186.645 106.698L188 111.111Z" fill="#2F2707"/>
<path d="M113.714 97.9534L90.7898 75.0313C89.4706 73.7109 87.3293 73.7109 86.0084 75.0313L81.2482 79.7914L87.2867 85.8299C88.69 85.3558 90.299 85.6737 91.4177 86.7925C92.5416 87.9181 92.8573 89.541 92.3717 90.9489L98.1912 96.7684C99.5992 96.2834 101.224 96.5973 102.348 97.7236C103.92 99.2945 103.92 101.841 102.348 103.413C100.776 104.985 98.2298 104.985 96.6572 103.413C95.475 102.23 95.183 100.493 95.7815 99.037L90.3543 93.6098L90.3537 107.892C90.7368 108.082 91.0986 108.335 91.4177 108.653C92.9893 110.224 92.9893 112.77 91.4177 114.343C89.8456 115.915 87.2982 115.915 85.7284 114.343C84.1568 112.77 84.1568 110.224 85.7284 108.653C86.1167 108.265 86.566 107.972 87.0453 107.775V93.3598C86.566 93.1639 86.1172 92.8724 85.7284 92.4818C84.5376 91.2928 84.2513 89.5456 84.8614 88.0835L78.9094 82.1303L63.1911 97.8474C61.8701 99.1689 61.8701 101.31 63.1911 102.631L86.1149 125.553C87.4347 126.874 89.5754 126.874 90.8969 125.553L113.714 102.737C115.034 101.416 115.034 99.2738 113.714 97.9534Z" fill="#DE4C36"/>
</svg>
