<svg width="250" height="200" viewBox="0 0 250 200" fill="none" xmlns="http://www.w3.org/2000/svg">
<path d="M38 85.5449H47.5623V94.9925H56.3096V85.5449H65.8723V114.154H56.31V104.574H47.5627V114.154H38.0004L38 85.5449Z" fill="white"/>
<path d="M78.4471 95.0322H70.0289V85.5449H96.4323V95.0322H88.0103V114.154H78.4475L78.4471 95.0322Z" fill="white"/>
<path d="M100.623 85.5449H110.594L116.727 95.5974L122.854 85.5449H132.829V114.154H123.306V99.974L116.727 110.146H116.563L109.979 99.974V114.154H100.623V85.5449Z" fill="white"/>
<path d="M137.588 85.5449H147.153V104.698H160.601V114.154H137.588V85.5449Z" fill="white"/>
<path d="M211.631 74L207.485 120.453L188.845 125.62L170.257 120.46L166.115 74H211.631Z" fill="#E44D26"/>
<path d="M188.873 121.67L203.935 117.495L207.478 77.7988H188.873V121.67Z" fill="#F16529"/>
<path d="M180.812 89.1952H188.873V83.4971H188.853H174.585L174.721 85.0258L176.122 100.728H188.873V95.0302H181.333L180.812 89.1952Z" fill="#EBEBEB"/>
<path d="M182.097 103.577H179.013H176.377L177.175 112.524L188.847 115.764L188.873 115.757V109.829L188.848 109.835L182.502 108.122L182.097 103.577Z" fill="#EBEBEB"/>
<path d="M188.854 100.728H195.87L195.209 108.118L188.854 109.834V115.762L200.535 112.524L200.621 111.562L201.96 96.5604L202.099 95.0303H200.563H188.854V100.728Z" fill="white"/>
<path d="M188.854 89.1813V89.1952H202.599H202.617L202.731 87.9145L202.991 85.0258L203.127 83.4971H188.854V87.0361V89.1813Z" fill="white"/>
</svg>
