<svg width="250" height="200" viewBox="0 0 250 200" fill="none" xmlns="http://www.w3.org/2000/svg">
<path d="M48 85.5449H56.4958V94.9925H64.2675V85.5449H72.7637V114.154H64.2679V104.574H56.4962V114.154H48.0004L48 85.5449Z" fill="black"/>
<path d="M83.936 95.0322H76.4567V85.5449H99.9153V95.0322H92.4326V114.154H83.9364L83.936 95.0322Z" fill="black"/>
<path d="M103.638 85.5449H112.497L117.947 95.5974L123.39 85.5449H132.253V114.154H123.792V99.974L117.947 110.146H117.8L111.951 99.974V114.154H103.638V85.5449Z" fill="black"/>
<path d="M136.481 85.5449H144.979V104.698H156.927V114.154H136.481V85.5449Z" fill="black"/>
<path d="M202.266 74L198.582 120.453L182.022 125.62L165.507 120.46L161.827 74H202.266Z" fill="#E44D26"/>
<path d="M182.046 121.67L195.428 117.495L198.576 77.7988H182.046V121.67Z" fill="#F16529"/>
<path d="M174.884 89.1952H182.046V83.4971H182.029H169.352L169.473 85.0258L170.717 100.728H182.046V95.0302H175.347L174.884 89.1952Z" fill="#EBEBEB"/>
<path d="M176.025 103.577H173.286H170.943L171.653 112.524L182.023 115.764L182.046 115.757V109.829L182.024 109.835L176.386 108.122L176.025 103.577Z" fill="#EBEBEB"/>
<path d="M182.029 100.728H188.263L187.675 108.118L182.029 109.834V115.762L192.407 112.524L192.484 111.562L193.673 96.5604L193.797 95.0303H192.433H182.029V100.728Z" fill="white"/>
<path d="M182.029 89.1813V89.1952H194.241H194.257L194.359 87.9145L194.59 85.0258L194.711 83.4971H182.029V87.0361V89.1813Z" fill="white"/>
</svg>
