<svg width="250" height="200" viewBox="0 0 250 200" fill="none" xmlns="http://www.w3.org/2000/svg">
<path fill-rule="evenodd" clip-rule="evenodd" d="M212.097 81.21L220.122 81.2541C220.122 81.2541 205.202 101.471 203.984 103.118C203.588 103.652 202.987 104.227 202.683 104.941C201.912 106.734 201.121 110.667 201.121 110.667L193.778 110.703C193.778 110.703 194.921 106.604 194.874 104.42C194.832 102.512 193.858 100.607 193.312 98.6935C192.76 96.757 192.01 92.9671 192.01 92.9671H199.559L200.6 97.1318L212.097 81.21Z" fill="#1A1918"/>
<path fill-rule="evenodd" clip-rule="evenodd" d="M196.902 85.4738C198.383 86.3668 199.291 91.2914 199.291 91.2914C199.291 91.2914 191.542 91.4057 187.325 91.4057H183.681L179.256 110.667H172.489C172.489 110.667 176.7 89.7349 177.695 85.9398C178.017 84.7114 179.902 84.9219 183.085 84.9219H188.169C191.451 84.9219 195.288 84.503 196.902 85.4738Z" fill="#1A1918"/>
<path fill-rule="evenodd" clip-rule="evenodd" d="M165.396 94.8543C165.396 94.8543 165.607 93.6178 164.68 92.1862C163.889 90.9655 163.158 90.6819 161.075 90.6168C155.195 90.432 155.31 94.7893 155.31 94.7893L165.396 94.8543ZM171.773 89.8646C172.635 92.9726 170.992 100.276 170.992 100.276C170.992 100.276 162.416 100.133 157.718 100.276C156.257 100.321 154.508 100.117 154.074 100.797C153.462 101.749 154.297 103.215 155.005 103.834C155.82 104.547 157.408 104.628 157.978 104.701C161.791 105.185 169.772 104.826 169.772 104.826L168.389 110.948C168.389 110.948 157.111 111.513 151.471 110.167C150.357 109.902 149.313 109.366 148.607 108.605C148.415 108.397 148.248 108.114 148.066 107.869C147.92 107.673 147.496 107.031 147.306 106.523C146.017 103.09 147.457 96.5123 148.867 92.988C149.031 92.5794 149.237 92.0617 149.454 91.6215C149.724 91.0725 149.953 90.4529 150.169 90.1248C150.315 89.8985 150.495 89.7526 150.646 89.5391C150.82 89.2866 151.023 89.0419 151.21 88.8236C151.731 88.2195 152.322 87.7926 153.032 87.262C155.382 85.5022 159.636 84.1356 164.745 84.6589C166.669 84.8566 169.574 85.5437 170.992 87.5221C171.372 88.0505 171.56 89.0992 171.773 89.8646Z" fill="#1A1918"/>
<path fill-rule="evenodd" clip-rule="evenodd" d="M140.734 84.8983L147.296 84.8594C147.296 84.8594 143.639 102.208 141.775 110.667H134.226C128.95 110.667 124.252 111.321 122.253 107.544C120.314 103.876 122.165 97.8453 123.034 93.7481C123.648 90.8485 124.942 84.9218 124.942 84.9218L131.741 84.8594C131.741 84.8594 129.82 94.0866 129.021 98.6937C128.734 100.344 128.144 101.898 128.76 103.119C129.346 104.28 130.166 104.363 132.665 104.42C133.456 104.439 136.048 104.42 136.048 104.42L140.734 84.8983Z" fill="#1A1918"/>
<path fill-rule="evenodd" clip-rule="evenodd" d="M110.019 97.3921C110.707 94.9507 111.709 92.3036 111.581 90.104C111.443 87.7511 109.47 85.6089 108.198 85.1587C104.363 83.805 100.774 85.6974 99.3477 87.2407C97.502 89.2401 96.8773 91.5749 96.224 94.7894C95.7374 97.176 95.3391 99.6957 96.224 101.557C97.7908 104.847 102.676 104.129 107.937 104.16C108.718 102.067 109.363 99.7166 110.019 97.3921ZM119.13 87.7614C119.879 93.2119 117.003 99.2275 115.022 104.459C117.042 104.641 118.812 104.431 118.94 104.581C119.072 104.777 117.586 110.826 117.068 110.841C115.465 110.883 110.152 110.927 107.937 110.927C100.709 110.927 93.9465 111.398 90.4979 107.804C89.0975 106.344 88.1293 103.839 87.8948 102.078C87.5042 99.136 87.9937 95.898 88.6757 93.2277C89.2926 90.8172 90.0838 88.5423 91.2787 86.4599C94.3161 81.1579 99.6001 77.2224 108.458 78.1308C110.176 78.3079 112.643 79.0601 114.184 79.9526C114.291 80.0155 114.663 80.312 114.749 80.3642C116.831 81.6892 118.729 84.8516 119.13 87.7614Z" fill="#1A1918"/>
<path fill-rule="evenodd" clip-rule="evenodd" d="M87.1479 84.9306C86.7106 86.9219 86.2733 89.1788 85.8125 91.1465H78.5244C79.0892 88.9653 79.5213 86.797 80.0861 84.8994C82.4183 84.8994 84.5867 84.9306 87.1479 84.9306Z" fill="#1A1918"/>
<path fill-rule="evenodd" clip-rule="evenodd" d="M78.2642 92.9678H85.2918C84.3732 98.0541 82.5539 106.258 81.1274 111.969C80.2345 115.543 79.6385 118.151 77.2228 120.038C77.0068 120.207 76.8822 120.127 76.7025 120.298C76.2572 120.723 74.1983 121.215 73.0585 121.339C71.205 121.54 69.1098 121.366 66.8323 121.319C67.4283 119.14 68.1026 116.524 68.6335 114.572C74.1854 115.244 74.3262 109.996 75.401 104.941C76.0231 102.021 77.9078 94.1392 78.2642 92.9678Z" fill="#1A1918"/>
<path fill-rule="evenodd" clip-rule="evenodd" d="M61.8657 106.241L61.715 106.631C59.1484 111.628 54.6011 114.695 48.1148 114.83C45.0825 114.893 42.1932 114.115 40.3059 113.268C36.2327 111.438 32.8069 108.045 30.9358 104.419C28.2519 99.2205 27.768 91.9897 33.3485 86.5889C33.4345 86.5889 32.6717 87.7599 32.7577 87.7599L32.6041 88.2597C28.5826 100.85 40.9721 111.639 53.0159 110.405C55.9103 110.109 59.6014 108.523 61.8657 106.241Z" fill="#21609B"/>
<path fill-rule="evenodd" clip-rule="evenodd" d="M54.5775 101.034C57.6076 101.055 60.7725 99.6388 62.6465 97.6505C61.0069 101.813 56.2594 104.488 49.8925 103.637C44.5618 102.924 39.4835 97.5594 38.9603 92.1842C38.5777 88.2723 39.9414 85.9375 42.188 83.1055C41.4072 84.5867 41.1154 85.7291 41.0426 86.4578C40.189 94.9199 47.8024 100.99 54.5775 101.034Z" fill="#21609B"/>
<path fill-rule="evenodd" clip-rule="evenodd" d="M62.3424 90.524C61.8713 91.6043 59.1591 93.6448 57.9616 93.8998C53.2192 94.91 50.1818 92.6611 48.5911 90.1022C48.3544 89.7196 47.9172 88.6761 47.8389 88.4104C47.2219 86.3126 47.5056 83.1396 49.3462 81.4971C48.7917 83.0588 48.7109 84.8729 49.0026 86.0521C49.1794 86.7653 49.7181 88.0099 50.2571 88.7929C51.2382 90.2194 51.8603 90.5659 53.1203 91.3232C53.6877 91.6642 54.2966 91.9376 54.5597 92.0129C55.7543 92.3642 58.2765 93.2909 62.3424 90.524Z" fill="#21609B"/>
</svg>
