<svg width="250" height="200" viewBox="0 0 250 200" fill="none" xmlns="http://www.w3.org/2000/svg">
<g clip-path="url(#clip0_580_412)">
<path d="M11 79.6521C11 78.813 11.6802 78.1328 12.5193 78.1328H61.1007C61.9398 78.1328 62.62 78.813 62.62 79.6521V128.234C62.62 129.073 61.9398 129.753 61.1007 129.753H12.5193C11.6802 129.753 11 129.073 11 128.234V79.6521Z" fill="#F7DF1E"/>
<path d="M24.5726 121.27L28.5229 118.879C29.285 120.23 29.9783 121.374 31.6412 121.374C33.2352 121.374 34.2401 120.75 34.2401 118.325V101.831H39.0911V118.393C39.0911 123.418 36.146 125.705 31.8491 125.705C27.9685 125.705 25.716 123.695 24.5726 121.27Z" fill="black"/>
<path d="M41.7261 120.751L45.6759 118.464C46.7157 120.162 48.0671 121.41 50.4578 121.41C52.4678 121.41 53.7495 120.405 53.7495 119.019C53.7495 117.355 52.4329 116.766 50.2152 115.796L49.0028 115.276C45.5029 113.786 43.1812 111.915 43.1812 107.965C43.1812 104.327 45.9532 101.555 50.2847 101.555C53.3686 101.555 55.5862 102.629 57.18 105.436L53.403 107.861C52.5714 106.371 51.6707 105.782 50.2848 105.782C48.8641 105.782 47.9631 106.683 47.9631 107.861C47.9631 109.316 48.8641 109.906 50.9429 110.807L52.1555 111.326C56.279 113.094 58.6007 114.895 58.6007 118.949C58.6007 123.315 55.1703 125.706 50.5619 125.706C46.0573 125.706 43.1465 123.558 41.7261 120.751Z" fill="black"/>
</g>
<path d="M71.1999 120.931C70.6105 120.931 70.0919 120.884 69.6439 120.79C69.196 120.719 68.7952 120.613 68.4416 120.471V117.289C68.8188 117.383 69.2196 117.466 69.6439 117.536C70.0683 117.607 70.5162 117.642 70.9877 117.642C71.5771 117.642 72.1311 117.524 72.6498 117.289C73.192 117.053 73.6164 116.629 73.9228 116.016C74.2293 115.403 74.3826 114.542 74.3826 113.434V88.751H78.2018V113.257C78.2018 115.026 77.9071 116.475 77.3177 117.607C76.7519 118.762 75.9385 119.599 74.8776 120.118C73.8403 120.66 72.6144 120.931 71.1999 120.931ZM91.7471 94.5858C94.1518 94.5858 95.9435 95.1163 97.1222 96.1771C98.301 97.2145 98.8904 98.8529 98.8904 101.093V114H96.2382L95.4955 111.348H95.3541C94.8119 112.031 94.2461 112.597 93.6567 113.045C93.0909 113.493 92.4308 113.823 91.6764 114.035C90.9455 114.248 90.0497 114.354 88.9888 114.354C87.8572 114.354 86.8317 114.153 85.9122 113.752C85.0164 113.328 84.3091 112.692 83.7905 111.843C83.2718 110.971 83.0125 109.886 83.0125 108.589C83.0125 106.656 83.7433 105.183 85.205 104.169C86.6902 103.155 88.9416 102.601 91.9593 102.507L95.2126 102.401V101.34C95.2126 99.9256 94.8944 98.9354 94.2578 98.3696C93.6213 97.8038 92.7255 97.5209 91.5703 97.5209C90.5801 97.5209 89.6371 97.6624 88.7412 97.9453C87.8454 98.2282 86.9967 98.57 86.1951 98.9708L84.9928 96.2479C85.8886 95.7764 86.9142 95.3874 88.0694 95.0809C89.2481 94.7508 90.474 94.5858 91.7471 94.5858ZM92.6312 104.912C90.4622 105.006 88.9534 105.371 88.1047 106.008C87.2796 106.621 86.867 107.493 86.867 108.625C86.867 109.615 87.1617 110.334 87.7511 110.782C88.364 111.23 89.1302 111.454 90.0497 111.454C91.5349 111.454 92.7608 111.041 93.7274 110.216C94.694 109.391 95.1773 108.153 95.1773 106.503V104.841L92.6312 104.912ZM108.941 114L101.727 94.9394H105.688L109.648 106.079C109.813 106.55 109.978 107.081 110.143 107.67C110.332 108.259 110.497 108.825 110.639 109.367C110.78 109.91 110.874 110.381 110.921 110.782H111.063C111.134 110.381 111.24 109.91 111.381 109.367C111.546 108.802 111.723 108.236 111.912 107.67C112.1 107.081 112.265 106.55 112.407 106.079L116.367 94.9394H120.328L113.079 114H108.941ZM130.667 94.5858C133.072 94.5858 134.863 95.1163 136.042 96.1771C137.221 97.2145 137.81 98.8529 137.81 101.093V114H135.158L134.415 111.348H134.274C133.732 112.031 133.166 112.597 132.576 113.045C132.011 113.493 131.351 113.823 130.596 114.035C129.865 114.248 128.969 114.354 127.909 114.354C126.777 114.354 125.751 114.153 124.832 113.752C123.936 113.328 123.229 112.692 122.71 111.843C122.192 110.971 121.932 109.886 121.932 108.589C121.932 106.656 122.663 105.183 124.125 104.169C125.61 103.155 127.861 102.601 130.879 102.507L134.132 102.401V101.34C134.132 99.9256 133.814 98.9354 133.178 98.3696C132.541 97.8038 131.645 97.5209 130.49 97.5209C129.5 97.5209 128.557 97.6624 127.661 97.9453C126.765 98.2282 125.916 98.57 125.115 98.9708L123.913 96.2479C124.808 95.7764 125.834 95.3874 126.989 95.0809C128.168 94.7508 129.394 94.5858 130.667 94.5858ZM131.551 104.912C129.382 105.006 127.873 105.371 127.025 106.008C126.199 106.621 125.787 107.493 125.787 108.625C125.787 109.615 126.082 110.334 126.671 110.782C127.284 111.23 128.05 111.454 128.969 111.454C130.455 111.454 131.681 111.041 132.647 110.216C133.614 109.391 134.097 108.153 134.097 106.503V104.841L131.551 104.912ZM158.505 107.175C158.505 108.684 158.14 109.969 157.409 111.03C156.678 112.09 155.629 112.916 154.262 113.505C152.894 114.071 151.268 114.354 149.382 114.354C148.462 114.354 147.578 114.295 146.729 114.177C145.881 114.083 145.091 113.941 144.36 113.752C143.629 113.564 142.981 113.328 142.415 113.045V109.438C143.358 109.863 144.466 110.252 145.739 110.605C147.012 110.935 148.309 111.1 149.629 111.1C150.761 111.1 151.704 110.947 152.458 110.641C153.213 110.334 153.778 109.91 154.156 109.367C154.533 108.825 154.721 108.189 154.721 107.458C154.721 106.68 154.521 106.032 154.12 105.513C153.743 104.971 153.142 104.476 152.317 104.028C151.515 103.556 150.431 103.061 149.063 102.542C148.12 102.189 147.26 101.8 146.482 101.375C145.727 100.928 145.056 100.409 144.466 99.8195C143.9 99.2301 143.464 98.5465 143.158 97.7685C142.851 96.9905 142.698 96.0828 142.698 95.0455C142.698 93.6546 143.04 92.464 143.724 91.4739C144.431 90.4837 145.397 89.7293 146.623 89.2107C147.849 88.6684 149.275 88.3973 150.902 88.3973C152.27 88.3973 153.531 88.5388 154.686 88.8217C155.865 89.081 156.985 89.4464 158.045 89.9179L156.843 93.0652C155.877 92.6644 154.898 92.3344 153.908 92.0751C152.918 91.8157 151.881 91.6861 150.796 91.6861C149.853 91.6861 149.063 91.8275 148.427 92.1104C147.79 92.3933 147.307 92.7823 146.977 93.2774C146.67 93.7725 146.517 94.3501 146.517 95.0102C146.517 95.7882 146.694 96.4365 147.048 96.9551C147.401 97.4738 147.967 97.9571 148.745 98.405C149.523 98.8294 150.549 99.3009 151.822 99.8195C153.236 100.362 154.438 100.951 155.429 101.588C156.442 102.224 157.209 102.99 157.727 103.886C158.246 104.759 158.505 105.855 158.505 107.175ZM170.698 114.354C168.954 114.354 167.421 114.012 166.101 113.328C164.781 112.644 163.756 111.584 163.025 110.145C162.294 108.684 161.928 106.833 161.928 104.593C161.928 102.236 162.317 100.326 163.095 98.8647C163.897 97.4031 164.97 96.3304 166.313 95.6467C167.681 94.9394 169.237 94.5858 170.981 94.5858C172.042 94.5858 173.032 94.7037 173.952 94.9394C174.895 95.1516 175.673 95.3992 176.286 95.6821L175.154 98.7233C174.494 98.4639 173.787 98.24 173.032 98.0514C172.302 97.8628 171.606 97.7685 170.946 97.7685C169.767 97.7685 168.789 98.0278 168.011 98.5465C167.256 99.0415 166.691 99.7959 166.313 100.81C165.96 101.8 165.783 103.049 165.783 104.558C165.783 105.996 165.972 107.21 166.349 108.2C166.726 109.191 167.28 109.945 168.011 110.464C168.765 110.959 169.696 111.206 170.805 111.206C171.865 111.206 172.797 111.088 173.598 110.853C174.4 110.617 175.154 110.31 175.861 109.933V113.187C175.178 113.587 174.435 113.882 173.634 114.071C172.832 114.259 171.854 114.354 170.698 114.354ZM189.767 94.5858C190.097 94.5858 190.463 94.6094 190.864 94.6565C191.264 94.6801 191.594 94.7155 191.854 94.7626L191.465 98.2635C191.205 98.1928 190.899 98.1339 190.545 98.0867C190.192 98.0396 189.862 98.016 189.555 98.016C188.848 98.016 188.164 98.1575 187.504 98.4404C186.868 98.6997 186.29 99.0887 185.771 99.6073C185.253 100.102 184.84 100.715 184.534 101.446C184.251 102.177 184.109 103.014 184.109 103.957V114H180.361V94.9394H183.331L183.826 98.3343H183.968C184.369 97.6506 184.852 97.0259 185.418 96.46C185.983 95.8942 186.632 95.4463 187.363 95.1163C188.093 94.7626 188.895 94.5858 189.767 94.5858ZM199.132 94.9394V114H195.383V94.9394H199.132ZM197.293 87.6901C197.858 87.6901 198.354 87.8551 198.778 88.1851C199.202 88.5152 199.414 89.0692 199.414 89.8472C199.414 90.6016 199.202 91.1556 198.778 91.5093C198.354 91.8393 197.858 92.0043 197.293 92.0043C196.68 92.0043 196.161 91.8393 195.737 91.5093C195.336 91.1556 195.136 90.6016 195.136 89.8472C195.136 89.0692 195.336 88.5152 195.737 88.1851C196.161 87.8551 196.68 87.6901 197.293 87.6901ZM214.531 94.5858C216.817 94.5858 218.656 95.4109 220.047 97.0612C221.462 98.7115 222.169 101.175 222.169 104.452C222.169 106.597 221.851 108.413 221.214 109.898C220.578 111.383 219.682 112.503 218.527 113.257C217.371 113.988 216.028 114.354 214.495 114.354C213.529 114.354 212.68 114.236 211.949 114C211.218 113.741 210.594 113.411 210.075 113.01C209.58 112.585 209.144 112.138 208.766 111.666H208.519C208.59 112.09 208.649 112.597 208.696 113.187C208.743 113.752 208.766 114.259 208.766 114.707V122.487H205.018V94.9394H208.059L208.59 97.4856H208.766C209.144 96.9669 209.592 96.4836 210.11 96.0357C210.629 95.5878 211.254 95.2341 211.985 94.9748C212.715 94.7155 213.564 94.5858 214.531 94.5858ZM213.647 97.6624C212.468 97.6624 211.525 97.8981 210.818 98.3696C210.11 98.8176 209.592 99.5012 209.262 100.421C208.955 101.317 208.79 102.46 208.766 103.851V104.417C208.766 105.878 208.92 107.128 209.226 108.165C209.533 109.179 210.04 109.957 210.747 110.499C211.478 111.018 212.468 111.277 213.717 111.277C214.778 111.277 215.639 110.994 216.299 110.428C216.982 109.839 217.489 109.026 217.819 107.988C218.149 106.951 218.314 105.749 218.314 104.381C218.314 102.307 217.937 100.668 217.183 99.4659C216.428 98.2635 215.25 97.6624 213.647 97.6624ZM233.807 111.312C234.303 111.312 234.809 111.265 235.328 111.171C235.847 111.077 236.295 110.971 236.672 110.853V113.682C236.271 113.87 235.729 114.024 235.045 114.141C234.362 114.283 233.678 114.354 232.994 114.354C231.957 114.354 231.002 114.177 230.13 113.823C229.281 113.47 228.597 112.857 228.079 111.984C227.56 111.112 227.301 109.898 227.301 108.342V97.8038H224.649V96.1064L227.442 94.6919L228.751 90.6605H231.049V94.9394H236.495V97.8038H231.049V108.271C231.049 109.309 231.297 110.075 231.792 110.57C232.31 111.065 232.982 111.312 233.807 111.312Z" fill="black"/>
<defs>
<clipPath id="clip0_580_412">
<rect width="51.62" height="51.62" fill="white" transform="translate(11 78.1328)"/>
</clipPath>
</defs>
</svg>
