<svg width="250" height="200" viewBox="0 0 250 200" fill="none" xmlns="http://www.w3.org/2000/svg">
<path d="M95.0761 78.8945V86.5894C95.0761 86.829 95.0141 87.0645 94.896 87.273C94.7779 87.4815 94.6078 87.6558 94.4022 87.7789L89.1933 90.9054C89.088 90.9685 88.9679 91.0025 88.8451 91.0039C88.7223 91.0054 88.6014 90.9742 88.4946 90.9135C88.3879 90.8529 88.2992 90.765 88.2375 90.6588C88.1759 90.5526 88.1435 90.432 88.1438 90.3092V82.6144C88.1438 82.3752 88.2058 82.14 88.3236 81.9318C88.4415 81.7236 88.6112 81.5494 88.8162 81.4262L94.0265 78.2998C94.1318 78.2367 94.252 78.2026 94.3748 78.2012C94.4975 78.1998 94.6185 78.231 94.7252 78.2916C94.832 78.3523 94.9207 78.4402 94.9824 78.5463C95.044 78.6525 95.0763 78.7718 95.0761 78.8945Z" fill="#0073E6"/>
<path d="M63.1808 87.4075L47.5943 78.2818C47.489 78.2201 47.3693 78.1872 47.2472 78.1865C47.1252 78.1859 47.0051 78.2175 46.8992 78.2781C46.7932 78.3387 46.7052 78.4263 46.6439 78.5319C46.5827 78.6374 46.5504 78.7573 46.5503 78.8794V102.143C46.5503 102.502 46.6433 102.855 46.8202 103.167C46.997 103.48 47.2518 103.741 47.5596 103.926L52.433 106.85C52.5383 106.913 52.6585 106.947 52.7813 106.948C52.904 106.95 53.025 106.918 53.1317 106.858C53.2385 106.797 53.3272 106.709 53.3889 106.603C53.4505 106.497 53.4828 106.376 53.4826 106.254V90.6282C53.4826 90.5795 53.4955 90.5318 53.5198 90.4896C53.5442 90.4475 53.5792 90.4126 53.6213 90.3883C53.6635 90.364 53.7113 90.3512 53.7599 90.3512C53.8086 90.3512 53.8564 90.364 53.8985 90.3883L63.1877 95.74C63.3985 95.8617 63.6376 95.9258 63.881 95.9258C64.1243 95.9258 64.3634 95.8617 64.5742 95.74L73.8634 90.3856C73.9055 90.3612 73.9533 90.3484 74.002 90.3484C74.0506 90.3484 74.0984 90.3612 74.1406 90.3855C74.1827 90.4098 74.2177 90.4447 74.2421 90.4869C74.2665 90.529 74.2793 90.5768 74.2794 90.6254V99.0772C74.2795 99.3145 74.2188 99.5478 74.103 99.7548C73.9872 99.9619 73.8202 100.136 73.618 100.26L64.9055 105.606C64.8044 105.668 64.7208 105.755 64.6628 105.858C64.6048 105.962 64.5743 106.078 64.5742 106.197V114.012C64.5744 114.134 64.6066 114.253 64.6674 114.358C64.7282 114.463 64.8156 114.55 64.9208 114.611L77.0384 121.626C77.2525 121.751 77.4959 121.815 77.7433 121.813C77.9908 121.812 78.2333 121.744 78.4456 121.617L94.4037 112.042C94.6088 111.919 94.7785 111.745 94.8963 111.536C95.0141 111.328 95.0761 111.093 95.0761 110.854V95.5335C95.0764 95.4107 95.0441 95.29 94.9824 95.1839C94.9208 95.0777 94.8321 94.9898 94.7253 94.9291C94.6186 94.8685 94.4976 94.8373 94.3749 94.8387C94.2521 94.8402 94.1319 94.8742 94.0266 94.9373L88.8163 98.0637C88.6112 98.1869 88.4415 98.3611 88.3237 98.5693C88.2059 98.7775 88.1439 99.0127 88.1439 99.2519V107.085C88.1441 107.205 88.1132 107.323 88.0542 107.428C87.9951 107.532 87.9099 107.62 87.807 107.682L78.3985 113.327C78.1985 113.447 77.9713 113.515 77.7382 113.524C77.5051 113.533 77.2734 113.483 77.0647 113.378L70.8132 110.252L80.5392 104.416C80.7443 104.293 80.914 104.119 81.0318 103.911C81.1496 103.703 81.2116 103.468 81.2116 103.228V78.8794C81.2116 78.7573 81.1793 78.6374 81.118 78.5319C81.0567 78.4263 80.9687 78.3387 80.8628 78.2781C80.7568 78.2175 80.6367 78.1859 80.5147 78.1865C80.3926 78.1872 80.2729 78.2201 80.1676 78.2818L64.5811 87.4075C64.3687 87.5317 64.127 87.5972 63.881 87.5972C63.6349 87.5972 63.3932 87.5317 63.1808 87.4075Z" fill="#0073E6"/>
<path d="M116.4 109.559V84.3257H122.636L133.126 98.889L128.512 98.8529L139.038 84.3257H145.202V109.559H138.317V102.602C138.317 100.536 138.365 98.6367 138.461 96.9064C138.558 95.1525 138.749 93.3848 139.038 91.6073L139.759 93.8423L131.936 103.936H129.557L121.771 93.7342L122.564 91.6073C122.851 93.3258 123.043 95.0587 123.141 96.7982C123.238 98.5285 123.285 100.463 123.285 102.602V109.559H116.4ZM164.761 109.775C162.309 109.775 160.135 109.294 158.236 108.333C156.361 107.373 154.896 106.039 153.838 104.332C152.805 102.627 152.288 100.691 152.288 98.5285V84.3257H159.498V98.3122C159.498 99.3701 159.726 100.295 160.182 101.088C160.622 101.864 161.272 102.502 162.057 102.926C162.85 103.359 163.751 103.575 164.761 103.575C165.818 103.575 166.757 103.359 167.572 102.926C168.388 102.518 169.065 101.879 169.519 101.088C170 100.295 170.24 99.3687 170.24 98.3122V84.3257H177.233V98.5285C177.233 100.691 176.706 102.625 175.647 104.332C174.614 106.038 173.16 107.373 171.285 108.333C169.436 109.294 167.26 109.775 164.761 109.775ZM184.741 109.559V103.575H190.544V90.3096H184.741V84.3257H203.449V90.3096H197.682V103.575H203.449V109.559H184.741Z" fill="#090B0B"/>
</svg>