<svg width="250" height="200" viewBox="0 0 250 200" fill="none" xmlns="http://www.w3.org/2000/svg">
<path d="M151.46 83.7119H179.799V88.9424H168.557V116.459H162.936V88.9424H151.46V83.7119Z" fill="black"/>
<path d="M104.855 83.7119V88.9424H82.1397V97.3567H100.407V102.587H82.1397V111.229H104.855V116.459H76.519V88.9424H76.5166V83.7119H104.855Z" fill="black"/>
<path d="M119.005 83.7246H111.649L137.996 116.472H145.374L132.198 100.11L145.353 83.7496L137.996 83.761L128.516 95.5357L119.005 83.7246Z" fill="black"/>
<path d="M126.553 107.116L122.869 102.536L111.628 116.497H119.005L126.553 107.116Z" fill="black"/>
<path fill-rule="evenodd" clip-rule="evenodd" d="M76.7161 116.459L50.3336 83.6982H43.3076V116.446H48.9284V90.698L69.655 116.459H76.7161Z" fill="black"/>
<path d="M181.062 116.26C180.651 116.26 180.3 116.117 180.007 115.832C179.714 115.547 179.569 115.201 179.573 114.792C179.569 114.394 179.714 114.053 180.007 113.768C180.3 113.482 180.651 113.34 181.062 113.34C181.458 113.34 181.805 113.482 182.098 113.768C182.395 114.053 182.543 114.394 182.548 114.792C182.543 115.062 182.475 115.31 182.338 115.531C182.197 115.757 182.018 115.933 181.793 116.061C181.572 116.192 181.329 116.26 181.062 116.26Z" fill="black"/>
<path d="M190.656 102.464H193.147V112.06C193.143 112.942 192.952 113.696 192.579 114.33C192.202 114.965 191.68 115.449 191.01 115.79C190.344 116.128 189.563 116.301 188.675 116.301C187.864 116.301 187.137 116.154 186.489 115.869C185.842 115.584 185.328 115.156 184.951 114.593C184.57 114.03 184.383 113.328 184.383 112.488H186.878C186.882 112.856 186.965 113.175 187.125 113.441C187.285 113.707 187.506 113.91 187.788 114.053C188.073 114.195 188.401 114.267 188.77 114.267C189.171 114.267 189.513 114.184 189.791 114.015C190.069 113.85 190.283 113.602 190.431 113.272C190.576 112.946 190.652 112.54 190.656 112.06V102.464Z" fill="black"/>
<path d="M203.395 106.217C203.334 105.635 203.067 105.181 202.603 104.858C202.134 104.532 201.529 104.371 200.786 104.371C200.264 104.371 199.815 104.449 199.442 104.603C199.069 104.761 198.779 104.971 198.581 105.238C198.383 105.504 198.284 105.808 198.276 106.15C198.276 106.435 198.345 106.682 198.478 106.889C198.611 107.099 198.79 107.275 199.023 107.418C199.251 107.564 199.506 107.684 199.785 107.782C200.066 107.88 200.348 107.962 200.63 108.03L201.928 108.349C202.45 108.469 202.957 108.63 203.441 108.837C203.924 109.039 204.362 109.298 204.747 109.61C205.131 109.921 205.436 110.296 205.661 110.735C205.885 111.175 206 111.689 206 112.282C206 113.081 205.794 113.783 205.379 114.391C204.964 114.995 204.366 115.468 203.581 115.809C202.801 116.147 201.856 116.32 200.744 116.32C199.67 116.32 198.733 116.155 197.945 115.824C197.153 115.498 196.536 115.017 196.09 114.387C195.645 113.757 195.405 112.987 195.37 112.083H197.838C197.873 112.556 198.025 112.95 198.284 113.269C198.547 113.584 198.889 113.817 199.308 113.974C199.731 114.128 200.203 114.207 200.725 114.207C201.27 114.207 201.75 114.124 202.165 113.963C202.576 113.802 202.9 113.576 203.132 113.284C203.368 112.995 203.486 112.653 203.49 112.263C203.486 111.906 203.379 111.61 203.174 111.377C202.964 111.145 202.675 110.949 202.305 110.792C201.933 110.634 201.498 110.492 201.003 110.368L199.427 109.97C198.288 109.681 197.385 109.242 196.726 108.653C196.064 108.063 195.736 107.283 195.736 106.303C195.736 105.5 195.957 104.795 196.403 104.191C196.844 103.586 197.45 103.117 198.215 102.783C198.985 102.445 199.853 102.28 200.82 102.28C201.803 102.28 202.663 102.445 203.406 102.783C204.149 103.117 204.732 103.583 205.154 104.175C205.577 104.768 205.798 105.448 205.81 106.217H203.395Z" fill="black"/>
</svg>
