<svg width="250" height="200" viewBox="0 0 250 200" fill="none" xmlns="http://www.w3.org/2000/svg">
<path d="M125 129.369C155.928 129.369 181 116.317 181 100.218C181 84.1186 155.928 71.0674 125 71.0674C94.0721 71.0674 69 84.1186 69 100.218C69 116.317 94.0721 129.369 125 129.369Z" fill="#8993BE"/>
<path fill-rule="evenodd" clip-rule="evenodd" d="M84.726 117.478L90.8632 86.4098H105.054C111.191 86.7935 114.26 89.8617 114.26 95.232C114.26 104.437 106.972 109.807 100.451 109.424H93.5481L92.0138 117.478H84.726ZM95.082 103.671L97 92.1634H101.986C104.671 92.1634 106.589 93.314 106.589 95.6153C106.205 102.136 103.137 103.287 99.685 103.671H95.082ZM112.834 109.424L118.971 78.3555H126.259L124.724 86.4098H131.628C137.765 86.7935 140.067 89.8617 139.3 93.6977L136.615 109.424H128.944L131.629 95.232C132.012 93.314 132.012 92.1634 129.327 92.1634H123.574L120.122 109.424H112.834ZM136.123 117.478L142.26 86.4098H156.452C162.589 86.7935 165.658 89.8617 165.658 95.232C165.658 104.437 158.37 109.807 151.849 109.424H144.945L143.411 117.478H136.123ZM146.479 103.671L148.397 92.1634H153.384C156.069 92.1634 157.986 93.314 157.986 95.6153C157.603 102.136 154.534 103.287 151.082 103.671H146.48H146.479Z" fill="#232531"/>
</svg>
