<svg width="52" height="53" viewBox="0 0 52 53" fill="none" xmlns="http://www.w3.org/2000/svg">
<path d="M25.9999 31.0823C28.5731 31.0823 30.659 28.9964 30.659 26.4233C30.659 23.8501 28.5731 21.7642 25.9999 21.7642C23.4268 21.7642 21.3408 23.8501 21.3408 26.4233C21.3408 28.9964 23.4268 31.0823 25.9999 31.0823Z" fill="#61DAFB"/>
<path d="M26 35.9688C39.8071 35.9688 51 31.6952 51 26.4234C51 21.1516 39.8071 16.8779 26 16.8779C12.1929 16.8779 1 21.1516 1 26.4234C1 31.6952 12.1929 35.9688 26 35.9688Z" stroke="#61DAFB" stroke-width="2"/>
<path d="M17.7335 31.1961C24.637 43.1534 33.9345 50.7099 38.5001 48.074C43.0656 45.4381 41.1702 33.6079 34.2667 21.6506C27.3631 9.69332 18.0656 2.13682 13.5001 4.77273C8.93454 7.40863 10.8299 19.2388 17.7335 31.1961Z" stroke="#61DAFB" stroke-width="2"/>
<path d="M17.7334 21.6511C10.8298 33.6084 8.93448 45.4385 13.5 48.0744C18.0655 50.7103 27.363 43.1538 34.2666 31.1965C41.1702 19.2392 43.0655 7.40908 38.5 4.77317C33.9345 2.13727 24.637 9.69376 17.7334 21.6511Z" stroke="#61DAFB" stroke-width="2"/>
</svg>
