<svg width="250" height="200" viewBox="0 0 250 200" fill="none" xmlns="http://www.w3.org/2000/svg">
<g clip-path="url(#clip0_578_96)">
<path d="M95.0131 89.228C94.2812 88.976 93.5227 88.7377 92.7418 88.5122C92.8701 87.9884 92.9879 87.4713 93.0927 86.963C94.8121 78.617 93.6879 71.8934 89.8491 69.6797C86.1683 67.5571 80.1485 69.7703 74.0688 75.0613C73.4842 75.57 72.8979 76.1087 72.3119 76.6732C71.9214 76.2997 71.5316 75.9388 71.1427 75.5935C64.771 69.9361 58.3844 67.5519 54.5494 69.772C50.8721 71.9008 49.7831 78.2217 51.3307 86.1312C51.4802 86.8952 51.6549 87.6754 51.8525 88.4687C50.9486 88.7252 50.076 88.9988 49.241 89.2898C41.7709 91.8942 37.0001 95.976 37.0001 100.21C37.0001 104.583 42.1215 108.969 49.9023 111.628C50.5163 111.838 51.1534 112.036 51.81 112.225C51.5969 113.083 51.4115 113.923 51.2559 114.743C49.7802 122.516 50.9326 128.687 54.6002 130.802C58.3884 132.987 64.7462 130.742 70.937 125.33C71.4263 124.902 71.9174 124.449 72.4093 123.973C73.047 124.587 73.6836 125.168 74.3168 125.713C80.3134 130.874 86.236 132.957 89.9001 130.836C93.6846 128.645 94.9145 122.015 93.3178 113.949C93.1958 113.333 93.0539 112.704 92.8945 112.063C93.341 111.931 93.7793 111.795 94.2067 111.654C102.296 108.974 107.558 104.641 107.558 100.21C107.558 95.9606 102.634 91.8514 95.0131 89.228ZM93.2587 108.792C92.8729 108.92 92.477 109.044 92.0736 109.163C91.1807 106.336 89.9755 103.33 88.5007 100.225C89.908 97.1927 91.0666 94.2251 91.9346 91.4164C92.6564 91.6253 93.3569 91.8456 94.032 92.0781C100.561 94.3258 104.544 97.6491 104.544 100.21C104.544 102.937 100.243 106.478 93.2587 108.792ZM90.3608 114.535C91.0669 118.101 91.1677 121.326 90.7 123.847C90.2798 126.112 89.4347 127.623 88.3898 128.227C86.1661 129.514 81.4109 127.841 76.2826 123.428C75.6947 122.922 75.1026 122.382 74.5085 121.811C76.4966 119.636 78.4836 117.108 80.4229 114.301C83.8339 113.998 87.0565 113.504 89.9789 112.828C90.1228 113.409 90.2507 113.978 90.3608 114.535ZM61.055 128.005C58.8825 128.772 57.1522 128.794 56.1063 128.191C53.8807 126.907 52.9554 121.952 54.2175 115.305C54.3621 114.544 54.5341 113.762 54.7324 112.963C57.6228 113.602 60.8218 114.062 64.2409 114.339C66.1933 117.086 68.2377 119.611 70.2979 121.822C69.8478 122.257 69.3994 122.671 68.9535 123.06C66.216 125.453 63.4727 127.151 61.055 128.005ZM50.8771 108.776C47.4366 107.6 44.5953 106.071 42.6478 104.404C40.8978 102.905 40.0142 101.417 40.0142 100.21C40.0142 97.6406 43.8447 94.3635 50.2332 92.1361C51.0084 91.8658 51.8198 91.6111 52.6619 91.3719C53.5448 94.2439 54.703 97.2467 56.1008 100.283C54.685 103.365 53.5103 106.415 52.6187 109.321C52.0184 109.148 51.4367 108.967 50.8771 108.776ZM54.2888 85.5524C52.9628 78.7757 53.8435 73.6635 56.0596 72.3807C58.4201 71.0142 63.6398 72.9626 69.1413 77.8475C69.493 78.1598 69.846 78.4865 70.2 78.8246C68.15 81.0259 66.1243 83.532 64.1893 86.2629C60.8709 86.5704 57.6944 87.0645 54.7739 87.7261C54.5903 86.9875 54.4276 86.2619 54.2888 85.5524ZM84.7245 93.0677C84.0263 91.8618 83.3095 90.6844 82.5788 89.5391C84.8301 89.8237 86.987 90.2015 89.0126 90.6638C88.4044 92.6127 87.6465 94.6504 86.7543 96.7394C86.1143 95.5243 85.4373 94.2992 84.7245 93.0677ZM72.3129 80.9788C73.7032 82.485 75.0955 84.1667 76.465 85.9913C75.085 85.9262 73.6879 85.8922 72.2792 85.8922C70.8839 85.8922 69.4971 85.9254 68.1256 85.9895C69.4965 84.1818 70.9008 82.5024 72.3129 80.9788ZM59.8218 93.0886C59.1244 94.2979 58.46 95.5164 57.83 96.7372C56.9523 94.6555 56.2014 92.6084 55.588 90.6319C57.6011 90.1814 59.7478 89.813 61.9848 89.5338C61.2438 90.6896 60.5211 91.876 59.8218 93.0886ZM62.0492 111.101C59.738 110.843 57.559 110.494 55.5464 110.056C56.1696 108.044 56.9371 105.953 57.8334 103.826C58.465 105.046 59.1321 106.265 59.8337 107.477C60.5485 108.712 61.2891 109.921 62.0492 111.101ZM72.3963 119.653C70.9677 118.112 69.5427 116.407 68.151 114.573C69.502 114.626 70.8794 114.653 72.2792 114.653C73.7174 114.653 75.1391 114.621 76.5385 114.558C75.1645 116.425 73.7772 118.133 72.3963 119.653ZM86.783 103.718C87.7261 105.868 88.5211 107.947 89.1524 109.925C87.1066 110.392 84.8978 110.768 82.5705 111.047C83.303 109.886 84.026 108.688 84.7365 107.457C85.4553 106.21 86.1378 104.962 86.783 103.718ZM82.1256 105.951C81.0226 107.863 79.8903 109.689 78.7407 111.412C76.647 111.562 74.4839 111.639 72.2792 111.639C70.0835 111.639 67.9477 111.571 65.891 111.437C64.6951 109.691 63.5381 107.86 62.4422 105.967C61.3491 104.079 60.3434 102.175 59.4319 100.282C60.3432 98.3846 61.3465 96.4786 62.4333 94.5941L62.433 94.5944C63.5227 92.7049 64.6694 90.8828 65.8543 89.1479C67.9527 88.9892 70.1045 88.9065 72.2791 88.9065C74.4635 88.9065 76.6182 88.9899 78.716 89.1499C79.8827 90.8721 81.0217 92.6883 82.1156 94.5781C83.222 96.4891 84.2383 98.3824 85.1574 100.239C84.2411 102.128 83.227 104.041 82.1256 105.951ZM88.3435 72.2911C90.7063 73.6536 91.6251 79.1488 90.1406 86.3547C90.0459 86.8145 89.9393 87.2828 89.8235 87.7574C86.8962 87.082 83.7175 86.5794 80.3894 86.2671C78.4506 83.5062 76.4415 80.9963 74.4249 78.8233C74.967 78.3017 75.5085 77.8043 76.0476 77.335C81.2567 72.8017 86.1253 71.0119 88.3435 72.2911ZM72.2792 93.9092C75.7589 93.9092 78.5798 96.73 78.5798 100.21C78.5798 103.689 75.7589 106.51 72.2792 106.51C68.7996 106.51 65.9786 103.689 65.9786 100.21C65.9786 96.73 68.7996 93.9092 72.2792 93.9092Z" fill="#00D8FF"/>
</g>
<path d="M124.957 88.5275C128.624 88.5275 131.424 89.1999 133.355 90.5447C135.312 91.8895 136.29 93.9434 136.29 96.7064C136.29 100.154 134.59 102.489 131.192 103.712C131.656 104.274 132.182 104.959 132.769 105.766C133.355 106.572 133.955 107.453 134.566 108.406C135.177 109.335 135.764 110.301 136.326 111.304C136.889 112.282 137.39 113.248 137.83 114.201H132.659C132.194 113.321 131.693 112.441 131.155 111.56C130.617 110.656 130.067 109.788 129.504 108.956C128.967 108.101 128.429 107.306 127.891 106.572C127.353 105.814 126.851 105.142 126.387 104.555C126.045 104.58 125.751 104.592 125.507 104.592C125.262 104.592 125.03 104.592 124.81 104.592H122.573V114.201H117.951V89.151C119.076 88.9065 120.274 88.7475 121.546 88.6742C122.817 88.5764 123.954 88.5275 124.957 88.5275ZM125.287 92.5252C124.309 92.5252 123.404 92.5619 122.573 92.6353V100.851H124.59C125.715 100.851 126.705 100.79 127.561 100.667C128.416 100.545 129.125 100.325 129.688 100.007C130.275 99.6894 130.715 99.2615 131.008 98.7236C131.302 98.1857 131.448 97.501 131.448 96.6697C131.448 95.8873 131.302 95.2271 131.008 94.6892C130.715 94.1512 130.287 93.7233 129.724 93.4055C129.187 93.0876 128.539 92.8676 127.781 92.7453C127.023 92.5986 126.191 92.5252 125.287 92.5252ZM140.128 104.702C140.128 103.015 140.372 101.535 140.861 100.264C141.375 98.9926 142.047 97.9412 142.879 97.1098C143.71 96.254 144.663 95.6183 145.739 95.2026C146.815 94.7625 147.915 94.5425 149.04 94.5425C151.681 94.5425 153.735 95.3616 155.202 96.9998C156.693 98.638 157.439 101.083 157.439 104.335C157.439 104.58 157.427 104.861 157.403 105.179C157.403 105.472 157.39 105.741 157.366 105.986H144.712C144.835 107.526 145.373 108.724 146.326 109.58C147.304 110.411 148.71 110.827 150.544 110.827C151.62 110.827 152.598 110.729 153.478 110.534C154.383 110.338 155.092 110.13 155.605 109.91L156.192 113.541C155.948 113.663 155.605 113.798 155.165 113.944C154.75 114.067 154.261 114.177 153.698 114.275C153.16 114.397 152.573 114.495 151.938 114.568C151.302 114.641 150.654 114.678 149.994 114.678C148.307 114.678 146.84 114.433 145.593 113.944C144.346 113.431 143.319 112.734 142.512 111.854C141.705 110.949 141.106 109.898 140.715 108.7C140.323 107.477 140.128 106.145 140.128 104.702ZM153.001 102.721C153.001 102.11 152.916 101.535 152.745 100.998C152.573 100.435 152.317 99.9584 151.974 99.5672C151.656 99.1515 151.253 98.8336 150.764 98.6136C150.299 98.3691 149.737 98.2468 149.077 98.2468C148.392 98.2468 147.793 98.3813 147.28 98.6502C146.766 98.8948 146.326 99.2249 145.959 99.6405C145.617 100.056 145.348 100.533 145.152 101.071C144.957 101.609 144.822 102.159 144.749 102.721H153.001ZM168.893 111.084C170.262 111.084 171.301 111.01 172.01 110.864V105.949C171.766 105.876 171.411 105.802 170.947 105.729C170.482 105.656 169.969 105.619 169.406 105.619C168.917 105.619 168.416 105.656 167.903 105.729C167.414 105.802 166.961 105.937 166.546 106.132C166.154 106.328 165.837 106.609 165.592 106.976C165.348 107.318 165.225 107.758 165.225 108.296C165.225 109.348 165.555 110.081 166.216 110.497C166.876 110.888 167.768 111.084 168.893 111.084ZM168.526 94.5425C169.993 94.5425 171.228 94.7258 172.23 95.0926C173.233 95.4594 174.028 95.9729 174.614 96.633C175.226 97.2932 175.654 98.1001 175.898 99.0537C176.167 99.9828 176.302 101.01 176.302 102.135V113.761C175.617 113.908 174.578 114.079 173.184 114.275C171.815 114.495 170.262 114.605 168.526 114.605C167.377 114.605 166.326 114.495 165.372 114.275C164.418 114.054 163.599 113.7 162.915 113.211C162.254 112.722 161.729 112.086 161.338 111.304C160.971 110.521 160.787 109.555 160.787 108.406C160.787 107.306 160.995 106.377 161.411 105.619C161.851 104.861 162.438 104.25 163.171 103.785C163.905 103.296 164.748 102.954 165.702 102.758C166.68 102.538 167.695 102.428 168.746 102.428C169.235 102.428 169.749 102.465 170.287 102.538C170.825 102.587 171.399 102.685 172.01 102.831V102.098C172.01 101.584 171.949 101.095 171.827 100.631C171.705 100.166 171.485 99.7628 171.167 99.4205C170.873 99.0537 170.47 98.7725 169.957 98.5769C169.468 98.3813 168.844 98.2835 168.086 98.2835C167.059 98.2835 166.118 98.3568 165.262 98.5035C164.406 98.6502 163.709 98.8214 163.171 99.017L162.621 95.4227C163.184 95.2271 164.003 95.0315 165.079 94.8359C166.154 94.6403 167.304 94.5425 168.526 94.5425ZM180.673 104.629C180.673 103.21 180.893 101.89 181.333 100.667C181.773 99.4205 182.397 98.3446 183.203 97.4399C184.035 96.5352 185.037 95.8261 186.211 95.3127C187.385 94.7992 188.705 94.5425 190.172 94.5425C191.981 94.5425 193.693 94.8726 195.307 95.5327L194.353 99.1637C193.84 98.9437 193.253 98.7603 192.593 98.6136C191.957 98.4669 191.272 98.3935 190.539 98.3935C188.803 98.3935 187.482 98.9437 186.578 100.044C185.673 101.12 185.221 102.648 185.221 104.629C185.221 106.536 185.649 108.052 186.504 109.176C187.36 110.277 188.803 110.827 190.832 110.827C191.59 110.827 192.336 110.754 193.069 110.607C193.803 110.46 194.439 110.277 194.977 110.057L195.6 113.724C195.111 113.969 194.365 114.189 193.363 114.385C192.385 114.58 191.37 114.678 190.319 114.678C188.68 114.678 187.25 114.433 186.028 113.944C184.829 113.431 183.827 112.734 183.02 111.854C182.238 110.949 181.651 109.886 181.26 108.663C180.868 107.416 180.673 106.071 180.673 104.629ZM198.816 89.9579L203.254 89.2243V95.0193H210.076V98.7236H203.254V106.536C203.254 108.076 203.498 109.176 203.987 109.837C204.476 110.497 205.308 110.827 206.481 110.827C207.288 110.827 207.997 110.741 208.609 110.57C209.244 110.399 209.746 110.24 210.112 110.093L210.846 113.614C210.332 113.834 209.66 114.054 208.829 114.275C207.997 114.519 207.019 114.641 205.895 114.641C204.525 114.641 203.376 114.458 202.447 114.091C201.542 113.724 200.821 113.199 200.283 112.514C199.745 111.805 199.366 110.961 199.146 109.983C198.926 108.981 198.816 107.844 198.816 106.572V89.9579Z" fill="white"/>
<defs>
<clipPath id="clip0_578_96">
<rect width="70.5582" height="70.5582" fill="white" transform="translate(37 65)"/>
</clipPath>
</defs>
</svg>
