<svg width="250" height="200" viewBox="0 0 250 200" fill="none" xmlns="http://www.w3.org/2000/svg">
<path d="M169.383 106.59C165.127 106.612 161.428 107.637 158.331 109.152C157.195 106.902 156.058 104.896 155.858 103.426C155.635 101.71 155.368 100.663 155.635 98.6129C155.902 96.563 157.106 93.6442 157.083 93.4214C157.061 93.1986 156.816 92.1513 154.365 92.1291C151.914 92.1068 149.797 92.597 149.552 93.2431C149.307 93.8893 148.839 95.3598 148.527 96.875C148.104 99.1031 143.625 107.057 141.063 111.224C140.239 109.598 139.526 108.172 139.37 107.035C139.147 105.32 138.88 104.272 139.147 102.222C139.414 100.173 140.617 97.2537 140.595 97.0309C140.573 96.8081 140.328 95.7609 137.877 95.7386C135.426 95.7163 133.309 96.2065 133.064 96.8527C132.819 97.4988 132.552 99.014 132.039 100.485C131.527 101.955 125.578 115.235 124.018 118.666C123.216 120.426 122.525 121.83 122.035 122.788C122.035 122.788 122.013 122.855 121.946 122.966C121.522 123.791 121.277 124.236 121.277 124.236C121.277 124.236 121.277 124.236 121.277 124.259C120.943 124.86 120.587 125.417 120.408 125.417C120.275 125.417 120.03 123.813 120.453 121.629C121.344 117.017 123.461 109.843 123.439 109.598C123.439 109.464 123.84 108.216 122.057 107.57C120.319 106.924 119.695 107.993 119.539 107.993C119.383 107.993 119.272 108.372 119.272 108.372C119.272 108.372 121.211 100.306 115.573 100.306C112.053 100.306 107.196 104.161 104.789 107.637C103.274 108.461 100.043 110.221 96.5897 112.115C95.2751 112.851 93.916 113.586 92.646 114.277C92.5568 114.187 92.4677 114.076 92.3786 113.987C85.5605 106.701 72.9494 101.554 73.4841 91.7726C73.6846 88.2076 74.9101 78.8494 97.7038 67.486C116.465 58.2393 131.393 60.8017 133.978 66.4834C137.676 74.5937 125.979 89.6558 106.594 91.8394C99.1966 92.6638 95.3197 89.8118 94.3393 88.7423C93.3144 87.6283 93.1584 87.5614 92.7797 87.7842C92.1558 88.1184 92.5568 89.1211 92.7797 89.7004C93.359 91.2155 95.7431 93.8893 99.776 95.2039C103.341 96.3625 112.008 97.0087 122.503 92.9535C134.245 88.4081 143.425 75.7746 140.729 65.1911C138.033 54.4515 120.208 50.9088 103.341 56.9024C93.3144 60.4674 82.4412 66.0823 74.6204 73.3905C65.3292 82.0802 63.8586 89.6336 64.4602 92.7975C66.6215 104.027 82.1069 111.335 88.3011 116.75C87.9892 116.928 87.6995 117.084 87.4544 117.218C84.3573 118.755 72.5483 124.927 69.6072 131.455C66.265 138.853 70.1419 144.156 72.7043 144.869C80.6587 147.075 88.8359 143.109 93.2253 136.558C97.6147 130.007 97.0799 121.496 95.0523 117.597C95.0301 117.552 95.0078 117.507 94.9632 117.463C95.7653 116.995 96.5897 116.505 97.3919 116.037C98.9738 115.101 100.534 114.232 101.87 113.519C101.113 115.591 100.556 118.064 100.288 121.629C99.9542 125.818 101.67 131.255 103.92 133.394C104.923 134.33 106.104 134.352 106.861 134.352C109.491 134.352 110.671 132.168 111.986 129.584C113.59 126.42 115.039 122.743 115.039 122.743C115.039 122.743 113.234 132.681 118.136 132.681C119.918 132.681 121.723 130.364 122.525 129.183C122.525 129.205 122.525 129.205 122.525 129.205C122.525 129.205 122.57 129.138 122.659 128.982C122.837 128.693 122.948 128.514 122.948 128.514C122.948 128.514 122.948 128.492 122.948 128.47C123.661 127.222 125.266 124.392 127.65 119.691C130.725 113.63 133.688 106.055 133.688 106.055C133.688 106.055 133.955 107.904 134.869 110.979C135.404 112.784 136.518 114.767 137.409 116.683C136.696 117.686 136.25 118.243 136.25 118.243C136.25 118.243 136.25 118.243 136.273 118.265C135.693 119.023 135.069 119.847 134.379 120.649C131.95 123.546 129.053 126.865 128.652 127.824C128.185 128.96 128.296 129.784 129.187 130.453C129.833 130.943 130.992 131.01 132.173 130.943C134.356 130.787 135.894 130.252 136.651 129.918C137.832 129.495 139.214 128.849 140.506 127.89C142.89 126.13 144.338 123.612 144.205 120.293C144.138 118.465 143.536 116.638 142.801 114.923C143.024 114.611 143.224 114.299 143.447 113.987C147.213 108.483 150.132 102.445 150.132 102.445C150.132 102.445 150.399 104.295 151.312 107.369C151.758 108.929 152.672 110.622 153.474 112.271C149.931 115.146 147.747 118.488 146.968 120.671C145.564 124.727 146.656 126.554 148.728 126.977C149.664 127.177 151.001 126.732 151.981 126.308C153.229 125.907 154.699 125.217 156.103 124.192C158.487 122.432 160.782 119.981 160.648 116.661C160.581 115.146 160.18 113.653 159.623 112.204C162.631 110.957 166.508 110.266 171.455 110.845C182.061 112.093 184.155 118.711 183.754 121.496C183.353 124.281 181.125 125.796 180.389 126.264C179.654 126.732 179.409 126.888 179.476 127.222C179.565 127.712 179.922 127.69 180.545 127.601C181.414 127.445 186.116 125.35 186.316 120.226C186.65 113.675 180.412 106.523 169.383 106.59ZM87.5658 134.174C84.0454 138.006 79.1435 139.454 77.0268 138.229C74.7541 136.914 75.6454 131.255 79.9679 127.2C82.5971 124.727 85.9839 122.432 88.2343 121.028C88.7467 120.716 89.5043 120.27 90.4178 119.713C90.5738 119.624 90.6629 119.58 90.6629 119.58C90.8412 119.468 91.0194 119.357 91.1977 119.245C92.7797 125.038 91.2645 130.141 87.5658 134.174ZM113.189 116.75C111.964 119.736 109.401 127.378 107.842 126.955C106.505 126.598 105.68 120.805 107.574 115.079C108.532 112.204 110.56 108.773 111.741 107.436C113.657 105.297 115.774 104.584 116.286 105.453C116.933 106.59 113.947 114.878 113.189 116.75ZM134.334 126.866C133.822 127.133 133.331 127.311 133.109 127.177C132.953 127.088 133.331 126.732 133.331 126.732C133.331 126.732 135.983 123.88 137.03 122.588C137.632 121.83 138.345 120.939 139.102 119.936C139.102 120.025 139.102 120.137 139.102 120.226C139.102 123.635 135.805 125.93 134.334 126.866ZM150.644 123.145C150.265 122.877 150.332 121.986 151.602 119.201C152.092 118.109 153.251 116.282 155.234 114.522C155.457 115.235 155.613 115.925 155.59 116.572C155.568 120.872 152.493 122.476 150.644 123.145Z" fill="#CD6799"/>
</svg>
