<svg width="250" height="200" viewBox="0 0 250 200" fill="none" xmlns="http://www.w3.org/2000/svg">
<path d="M32.2069 84.9756C25.7517 84.9756 21.7173 88.2032 20.1037 94.6589C22.5245 91.4308 25.349 90.2204 28.5766 91.0277C30.4181 91.4876 31.7342 92.8243 33.1913 94.3029C35.5645 96.7118 38.3116 99.5001 44.3115 99.5001C50.7668 99.5001 54.8012 96.2725 56.4152 89.8168C53.9944 93.0449 51.1699 94.2553 47.9423 93.448C46.1008 92.9881 44.7847 91.6514 43.3276 90.1728C40.9539 87.7639 38.2073 84.9756 32.2069 84.9756ZM20.1037 99.5001C13.6484 99.5001 9.61404 102.728 8 109.183C10.4208 105.955 13.2448 104.745 16.4724 105.552C18.3144 106.013 19.63 107.349 21.0871 108.827C23.4604 111.236 26.2079 114.025 32.2074 114.025C38.6631 114.025 42.6975 110.797 44.3115 104.341C41.8907 107.569 39.0662 108.78 35.8386 107.973C33.9971 107.513 32.681 106.176 31.2239 104.698C28.8507 102.288 26.1036 99.5001 20.1037 99.5001Z" fill="#38BDF8"/>
<path d="M80.6181 97.2152H76.3938V105.392C76.3938 107.573 77.8243 107.538 80.6181 107.402V110.707C74.9628 111.388 72.7141 109.821 72.7141 105.392V97.2152H69.5793V93.6718H72.7141V89.0956L76.3934 88.0055V93.6718H80.6181V97.2152ZM96.7228 93.6718H100.402V110.707H96.7228V108.254C95.4278 110.06 93.4179 111.15 90.76 111.15C86.127 111.15 82.277 107.232 82.277 102.19C82.277 97.1136 86.127 93.2298 90.7605 93.2298C93.4179 93.2298 95.4282 94.3198 96.7228 96.0913V93.6718ZM91.3393 107.641C94.4054 107.641 96.7228 105.358 96.7228 102.19C96.7228 99.0219 94.4059 96.7388 91.3393 96.7388C88.2728 96.7388 85.9563 99.0214 85.9563 102.19C85.9563 105.359 88.2733 107.641 91.3393 107.641ZM106.535 91.1165C105.24 91.1165 104.184 90.0259 104.184 88.7652C104.185 88.1421 104.433 87.5448 104.874 87.1042C105.314 86.6636 105.912 86.4156 106.535 86.4144C107.158 86.4156 107.755 86.6636 108.196 87.1042C108.636 87.5448 108.884 88.1421 108.886 88.7652C108.886 90.0259 107.829 91.1165 106.535 91.1165ZM104.695 110.706V93.6718H108.374V110.707L104.695 110.706ZM112.633 110.706V85.8359H116.313V110.707L112.633 110.706ZM140.196 93.6714H144.08L138.731 110.707H135.119L131.576 99.2255L127.999 110.707H124.388L119.038 93.6723H122.922L126.227 105.426L129.804 93.6723H133.313L136.857 105.426L140.196 93.6714ZM148.645 91.1165C147.35 91.1165 146.294 90.0259 146.294 88.7652C146.296 88.1421 146.544 87.5448 146.984 87.1042C147.425 86.6636 148.022 86.4156 148.645 86.4144C149.268 86.4156 149.866 86.6636 150.306 87.1042C150.747 87.5448 150.995 88.1421 150.996 88.7652C150.996 90.0259 149.94 91.1165 148.645 91.1165ZM146.806 110.706V93.6718H150.485V110.707L146.806 110.706ZM163.704 93.2284C167.52 93.2284 170.246 95.8181 170.246 100.247V110.706H166.566V100.622C166.566 98.033 165.067 96.6702 162.75 96.6702C160.331 96.6702 158.423 98.1012 158.423 101.576V110.707H154.744V93.6718H158.423V95.8524C159.548 94.0809 161.387 93.2288 163.704 93.2288L163.704 93.2284ZM187.69 86.8578H191.369V110.707H187.69V108.254C186.395 110.06 184.385 111.15 181.727 111.15C177.094 111.15 173.244 107.232 173.244 102.19C173.244 97.1136 177.094 93.2298 181.727 93.2298C184.385 93.2298 186.395 94.3198 187.69 96.0913V86.8578ZM182.306 107.641C185.372 107.641 187.689 105.358 187.689 102.19C187.689 99.0219 185.372 96.7388 182.306 96.7388C179.24 96.7388 176.923 99.0214 176.923 102.19C176.923 105.359 179.24 107.641 182.306 107.641ZM203.702 111.15C198.557 111.15 194.708 107.232 194.708 102.19C194.708 97.1136 198.557 93.2298 203.702 93.2298C207.041 93.2298 209.937 94.9669 211.3 97.6243L208.131 99.464C207.382 97.8632 205.712 96.8409 203.668 96.8409C200.67 96.8409 198.387 99.1235 198.387 102.19C198.387 105.257 200.67 107.539 203.668 107.539C205.712 107.539 207.382 106.483 208.199 104.916L211.368 106.721C209.937 109.413 207.041 111.15 203.702 111.15H203.702ZM217.432 98.3739C217.432 101.474 226.597 99.6003 226.597 105.904C226.597 109.311 223.633 111.15 219.954 111.15C216.547 111.15 214.093 109.617 213.003 107.164L216.172 105.324C216.717 106.857 218.08 107.777 219.954 107.777C221.589 107.777 222.849 107.233 222.849 105.869C222.849 102.837 213.685 104.541 213.685 98.4421C213.685 95.2396 216.444 93.2298 219.919 93.2298C222.713 93.2298 225.03 94.5239 226.222 96.7727L223.122 98.5103C222.509 97.1818 221.316 96.5681 219.919 96.5681C218.591 96.5681 217.432 97.1475 217.432 98.3739ZM233.139 98.3739C233.139 101.474 242.303 99.6003 242.303 105.904C242.303 109.311 239.339 111.15 235.66 111.15C232.253 111.15 229.8 109.617 228.709 107.164L231.878 105.324C232.423 106.857 233.786 107.777 235.66 107.777C237.295 107.777 238.555 107.233 238.555 105.869C238.555 102.837 229.391 104.541 229.391 98.4421C229.391 95.2396 232.15 93.2298 235.626 93.2298C238.419 93.2298 240.736 94.5239 241.929 96.7727L238.828 98.5103C238.215 97.1818 237.022 96.5681 235.626 96.5681C234.297 96.5681 233.139 97.1475 233.139 98.3739Z" fill="#0F172A"/>
</svg>
