<svg width="250" height="200" viewBox="0 0 250 200" fill="none" xmlns="http://www.w3.org/2000/svg">
<path d="M57.8935 73.6875H11.1065C9.77052 73.6875 8.6875 74.7705 8.6875 76.1065V122.893C8.6875 124.229 9.77052 125.312 11.1065 125.312H57.8935C59.2295 125.312 60.3125 124.229 60.3125 122.893V76.1065C60.3125 74.7705 59.2295 73.6875 57.8935 73.6875Z" fill="#3178C6"/>
<path fill-rule="evenodd" clip-rule="evenodd" d="M38.6392 113.806V119.463C39.6669 119.97 40.7622 120.327 41.8915 120.523C43.1965 120.764 44.5212 120.882 45.8482 120.877C47.1416 120.883 48.432 120.753 49.698 120.488C50.8346 120.258 51.9191 119.821 52.8969 119.197C53.8046 118.611 54.5528 117.809 55.0743 116.863C56.0084 114.904 56.1317 112.655 55.4173 110.605C55.1158 109.839 54.6666 109.139 54.0953 108.546C53.482 107.915 52.7854 107.371 52.0248 106.929C51.1491 106.416 50.2392 105.964 49.3016 105.576C48.5641 105.27 47.9003 104.972 47.3103 104.683C46.7863 104.432 46.2848 104.137 45.8113 103.8C45.4405 103.54 45.1185 103.217 44.86 102.845C44.6366 102.507 44.5203 102.11 44.5262 101.706C44.5213 101.333 44.6251 100.967 44.8249 100.653C45.042 100.324 45.3314 100.049 45.6712 99.8489C46.0866 99.6044 46.5385 99.4282 47.0098 99.3272C47.5884 99.1986 48.1797 99.1368 48.7724 99.1428C49.2708 99.1445 49.7686 99.1802 50.2622 99.2497C50.7952 99.3218 51.3225 99.4308 51.8404 99.5761C52.3672 99.7221 52.8824 99.9069 53.3818 100.129C53.8664 100.345 54.3299 100.606 54.7664 100.907V95.6286C53.8577 95.2848 52.9152 95.0376 51.9547 94.8911C50.7948 94.7223 49.6237 94.6428 48.4516 94.6533C47.1704 94.6464 45.8929 94.7918 44.6461 95.0865C43.5191 95.3441 42.4475 95.8018 41.4822 96.438C40.5856 97.0353 39.8452 97.8389 39.3232 98.7814C38.77 99.828 38.4963 101 38.5285 102.183C38.4877 103.748 39.0031 105.277 39.9832 106.498C41.1857 107.851 42.702 108.889 44.399 109.519C45.1734 109.839 45.8955 110.152 46.5654 110.458C47.1698 110.727 47.7508 111.046 48.3022 111.411C48.747 111.7 49.1377 112.065 49.4564 112.49C49.7367 112.874 49.8854 113.339 49.8805 113.815C49.883 114.172 49.7915 114.523 49.615 114.833C49.4189 115.166 49.1434 115.446 48.813 115.646C48.3995 115.898 47.9472 116.08 47.4744 116.185C46.8585 116.322 46.2285 116.387 45.5975 116.378C44.359 116.376 43.1305 116.158 41.9671 115.733C40.7517 115.294 39.6247 114.642 38.6392 113.806ZM29.1365 99.7236H36.5115V95.0644H15.9481V99.7236H23.2899V120.473H29.1365V99.7236Z" fill="white"/>
<path d="M89.964 85.645H80.7837V114.082H77.0332V85.645H67.9088V82.2863H89.964V85.645ZM107.261 91.3547L96.7932 117.72C94.946 122.422 92.315 124.773 88.9564 124.773C88.0048 124.773 87.2211 124.661 86.6053 124.493V121.247C87.389 121.527 88.1167 121.639 88.7325 121.639C90.5797 121.639 91.9232 120.519 92.8748 118.336L94.6661 114.026L85.8216 91.3547H89.852L96.0095 108.82C96.0655 109.044 96.2335 109.603 96.4574 110.555H96.5693C96.6253 110.219 96.7932 109.659 97.0171 108.876L103.455 91.3547H107.261ZM113.195 110.779H113.083V124.493H109.444V91.3547H113.083V95.3291H113.195C114.986 92.3063 117.617 90.7949 121.032 90.7949C123.942 90.7949 126.237 91.8025 127.861 93.8177C129.484 95.8329 130.324 98.5758 130.324 101.99C130.324 105.797 129.372 108.82 127.525 111.115C125.678 113.41 123.159 114.529 119.968 114.529C117.113 114.641 114.818 113.354 113.195 110.779ZM113.139 101.655V104.845C113.139 106.749 113.754 108.316 114.986 109.603C116.217 110.891 117.729 111.563 119.632 111.563C121.815 111.563 123.551 110.723 124.838 109.044C126.069 107.364 126.685 105.013 126.685 101.99C126.685 99.4714 126.125 97.4563 124.95 96.0568C123.774 94.6014 122.207 93.9297 120.192 93.9297C118.065 93.9297 116.385 94.6574 115.098 96.1128C113.754 97.5682 113.139 99.4155 113.139 101.655ZM152.603 103.614H136.593C136.649 106.133 137.321 108.092 138.608 109.491C139.896 110.891 141.687 111.563 143.982 111.563C146.557 111.563 148.908 110.723 151.035 109.044V112.458C149.02 113.914 146.389 114.641 143.143 114.641C139.952 114.641 137.433 113.634 135.586 111.563C133.738 109.491 132.843 106.581 132.843 102.886C132.843 99.3595 133.85 96.4487 135.866 94.2655C137.881 92.0264 140.344 90.9069 143.311 90.9069C146.277 90.9069 148.572 91.8585 150.196 93.8177C151.819 95.721 152.659 98.4079 152.659 101.823L152.603 103.614ZM148.852 100.535C148.852 98.4079 148.349 96.7845 147.341 95.609C146.333 94.4335 144.934 93.8737 143.199 93.8737C141.463 93.8737 140.008 94.4894 138.832 95.721C137.657 96.9525 136.873 98.5758 136.593 100.535H148.852ZM154.394 112.962V110.443C156.689 111.898 158.984 112.626 161.335 112.626C163.798 112.626 165.702 112.122 166.989 111.059C168.277 109.995 168.892 108.596 168.892 106.749C168.892 105.125 168.445 103.838 167.605 102.83C166.765 101.878 164.862 100.535 162.007 98.8557C158.76 96.9525 156.745 95.3851 155.906 94.1536C155.066 92.8661 154.618 91.4107 154.618 89.7873C154.618 87.5482 155.514 85.645 157.249 84.0776C158.984 82.5102 161.335 81.7266 164.246 81.7266C166.149 81.7266 168.053 82.0624 169.9 82.6782V84.9733C168.053 84.1336 166.037 83.6858 163.91 83.6858C161.727 83.6858 160.048 84.2456 158.76 85.3091C157.473 86.4287 156.857 87.7721 156.857 89.4515C156.857 91.0748 157.305 92.3623 158.145 93.3139C158.984 94.2655 160.888 95.609 163.742 97.2323C166.709 98.9117 168.668 100.423 169.676 101.711C170.684 102.998 171.131 104.509 171.131 106.245C171.131 108.708 170.292 110.667 168.612 112.234C166.933 113.802 164.526 114.529 161.447 114.529C160.328 114.529 159.096 114.361 157.641 114.026C156.185 113.69 155.122 113.41 154.394 112.962ZM190.052 113.074C188.373 114.082 186.357 114.641 184.006 114.641C180.927 114.641 178.409 113.578 176.505 111.451C174.602 109.323 173.65 106.581 173.65 103.11C173.65 99.5274 174.714 96.5606 176.841 94.2655C178.968 91.9705 181.711 90.7949 185.07 90.7949C186.805 90.7949 188.484 91.1308 190.108 91.8585V94.1536C188.484 93.146 186.693 92.6422 184.79 92.6422C182.103 92.6422 179.976 93.5938 178.297 95.497C176.617 97.4003 175.834 99.9193 175.834 102.942C175.834 105.909 176.617 108.26 178.129 110.051C179.64 111.842 181.655 112.738 184.118 112.738C186.413 112.738 188.373 112.122 190.052 110.947V113.074ZM203.598 93.4818C202.927 92.9781 202.143 92.7541 201.191 92.7541C199.4 92.7541 197.889 93.7058 196.713 95.553C195.482 97.4003 194.922 100.031 194.922 103.446V114.138H192.907V91.3547H194.922V96.3927H195.034C195.538 94.6574 196.377 93.3139 197.497 92.3623C198.616 91.4107 199.904 90.9069 201.415 90.9069C202.255 90.9069 203.039 91.0188 203.654 91.2987V93.4818H203.598ZM206.845 85.645C206.397 85.645 206.005 85.4771 205.67 85.1412C205.334 84.8053 205.166 84.4135 205.166 83.9097C205.166 83.4059 205.334 83.014 205.67 82.7342C206.005 82.4543 206.397 82.2863 206.845 82.2863C207.293 82.2863 207.685 82.4543 208.077 82.7342C208.412 83.014 208.58 83.4059 208.58 83.9097C208.58 84.3575 208.412 84.8053 208.077 85.1412C207.685 85.4771 207.293 85.645 206.845 85.645ZM205.838 114.082V91.3547H207.853V114.082H205.838ZM214.85 110.051H214.738V124.549H212.723V91.3547H214.738V96.0568H214.85C215.69 94.3775 216.809 93.09 218.321 92.1944C219.832 91.2987 221.511 90.8509 223.303 90.8509C226.213 90.8509 228.452 91.8585 230.076 93.8177C231.699 95.8329 232.483 98.5198 232.483 101.934C232.483 105.741 231.531 108.82 229.684 111.171C227.837 113.522 225.374 114.697 222.351 114.697C218.992 114.641 216.473 113.13 214.85 110.051ZM214.738 101.599V104.453C214.738 106.749 215.466 108.708 216.865 110.331C218.321 111.954 220.168 112.794 222.519 112.794C224.814 112.794 226.717 111.787 228.173 109.827C229.628 107.812 230.356 105.237 230.356 101.99C230.356 99.1356 229.684 96.8965 228.34 95.2172C226.997 93.5378 225.262 92.6982 223.023 92.6982C220.392 92.6982 218.321 93.5938 216.865 95.3851C215.41 97.1764 214.738 99.1916 214.738 101.599ZM244.854 113.746C243.79 114.25 242.783 114.473 241.887 114.473C238.528 114.473 236.849 112.458 236.849 108.428V93.2579H232.763V91.4107H236.849V85.4771L237.857 85.1412L238.864 84.8053V91.4107H244.854V93.2579H238.864V108.26C238.864 109.827 239.088 110.947 239.592 111.675C240.096 112.402 240.935 112.738 242.111 112.738C242.951 112.738 243.846 112.458 244.854 111.898V113.746Z" fill="#3178C6"/>
</svg>
