<svg width="1480" height="1440" viewBox="0 0 1480 1440" fill="none" xmlns="http://www.w3.org/2000/svg">
<rect width="1480" height="1440" fill="url(#paint0_linear_666_1347)"/>
<path d="M662.256 724.789V756H659.13V724.789H662.256ZM672.459 735.952C673.144 734.433 674.186 733.258 675.585 732.424C677.014 731.591 678.755 731.174 680.809 731.174V734.433H679.961C677.698 734.433 675.883 735.044 674.513 736.264C673.144 737.485 672.459 739.524 672.459 742.381V756H669.334V731.62H672.459V735.952ZM707.569 742.56C707.569 743.632 707.539 744.45 707.479 745.016H687.252C687.342 746.861 687.788 748.439 688.592 749.749C689.396 751.059 690.452 752.056 691.762 752.74C693.072 753.395 694.501 753.723 696.049 753.723C698.073 753.723 699.77 753.232 701.139 752.249C702.538 751.267 703.461 749.942 703.907 748.275H707.211C706.616 750.657 705.336 752.607 703.371 754.125C701.437 755.613 698.996 756.357 696.049 756.357C693.757 756.357 691.703 755.851 689.887 754.839C688.071 753.797 686.642 752.339 685.6 750.463C684.588 748.558 684.082 746.34 684.082 743.81C684.082 741.28 684.588 739.062 685.6 737.157C686.612 735.252 688.026 733.793 689.842 732.781C691.658 731.769 693.727 731.263 696.049 731.263C698.371 731.263 700.395 731.769 702.121 732.781C703.878 733.793 705.217 735.163 706.14 736.889C707.092 738.586 707.569 740.476 707.569 742.56ZM704.398 742.471C704.428 740.655 704.056 739.107 703.282 737.827C702.538 736.547 701.511 735.58 700.201 734.925C698.891 734.27 697.463 733.942 695.915 733.942C693.593 733.942 691.613 734.687 689.976 736.175C688.339 737.663 687.431 739.762 687.252 742.471H704.398ZM724.718 731.174C727.635 731.174 730.016 732.082 731.862 733.898C733.708 735.684 734.63 738.288 734.63 741.712V756H731.55V742.069C731.55 739.42 730.88 737.395 729.54 735.996C728.23 734.597 726.43 733.898 724.137 733.898C721.786 733.898 719.91 734.642 718.511 736.13C717.112 737.619 716.413 739.807 716.413 742.694V756H713.287V731.62H716.413V735.773C717.187 734.285 718.303 733.153 719.762 732.38C721.22 731.576 722.872 731.174 724.718 731.174ZM763.601 742.56C763.601 743.632 763.571 744.45 763.511 745.016H743.284C743.374 746.861 743.82 748.439 744.624 749.749C745.428 751.059 746.484 752.056 747.794 752.74C749.104 753.395 750.533 753.723 752.081 753.723C754.105 753.723 755.802 753.232 757.171 752.249C758.57 751.267 759.493 749.942 759.939 748.275H763.243C762.648 750.657 761.368 752.607 759.403 754.125C757.469 755.613 755.028 756.357 752.081 756.357C749.789 756.357 747.735 755.851 745.919 754.839C744.103 753.797 742.674 752.339 741.632 750.463C740.62 748.558 740.114 746.34 740.114 743.81C740.114 741.28 740.62 739.062 741.632 737.157C742.644 735.252 744.058 733.793 745.874 732.781C747.69 731.769 749.759 731.263 752.081 731.263C754.403 731.263 756.427 731.769 758.153 732.781C759.91 733.793 761.249 735.163 762.172 736.889C763.124 738.586 763.601 740.476 763.601 742.56ZM760.43 742.471C760.46 740.655 760.088 739.107 759.314 737.827C758.57 736.547 757.543 735.58 756.233 734.925C754.923 734.27 753.495 733.942 751.947 733.942C749.625 733.942 747.645 734.687 746.008 736.175C744.371 737.663 743.463 739.762 743.284 742.471H760.43Z" fill="white"/>
<path d="M677.303 786.809C679.119 787.196 680.578 788.104 681.679 789.533C682.78 790.932 683.331 792.539 683.331 794.355C683.331 796.975 682.408 799.059 680.563 800.606C678.747 802.125 676.202 802.884 672.927 802.884H658.326V771.539H672.436C675.621 771.539 678.107 772.268 679.893 773.726C681.709 775.185 682.617 777.165 682.617 779.665C682.617 781.511 682.126 783.044 681.143 784.264C680.191 785.485 678.911 786.333 677.303 786.809ZM665.962 784.219H670.963C672.213 784.219 673.166 783.952 673.82 783.416C674.505 782.85 674.847 782.032 674.847 780.96C674.847 779.888 674.505 779.07 673.82 778.504C673.166 777.939 672.213 777.656 670.963 777.656H665.962V784.219ZM671.588 796.722C672.868 796.722 673.85 796.439 674.535 795.873C675.249 795.278 675.606 794.43 675.606 793.328C675.606 792.227 675.234 791.364 674.49 790.739C673.776 790.113 672.779 789.801 671.499 789.801H665.962V796.722H671.588ZM699.101 803.241C696.66 803.241 694.457 802.72 692.493 801.678C690.558 800.636 689.025 799.148 687.894 797.213C686.792 795.278 686.241 793.016 686.241 790.426C686.241 787.866 686.807 785.619 687.938 783.684C689.069 781.719 690.617 780.216 692.582 779.174C694.547 778.132 696.749 777.611 699.19 777.611C701.631 777.611 703.834 778.132 705.799 779.174C707.763 780.216 709.311 781.719 710.442 783.684C711.574 785.619 712.139 787.866 712.139 790.426C712.139 792.986 711.559 795.248 710.398 797.213C709.267 799.148 707.704 800.636 705.709 801.678C703.745 802.72 701.542 803.241 699.101 803.241ZM699.101 796.633C700.56 796.633 701.795 796.097 702.807 795.025C703.849 793.953 704.37 792.42 704.37 790.426C704.37 788.432 703.864 786.899 702.852 785.827C701.869 784.755 700.649 784.219 699.19 784.219C697.702 784.219 696.467 784.755 695.484 785.827C694.502 786.869 694.011 788.402 694.011 790.426C694.011 792.42 694.487 793.953 695.44 795.025C696.422 796.097 697.642 796.633 699.101 796.633ZM723.825 782.121C724.718 780.752 725.835 779.68 727.174 778.906C728.514 778.102 730.002 777.7 731.639 777.7V785.782H729.541C727.635 785.782 726.207 786.199 725.254 787.033C724.301 787.836 723.825 789.265 723.825 791.319V802.884H716.19V777.968H723.825V782.121ZM733.771 790.381C733.771 787.821 734.247 785.574 735.199 783.639C736.182 781.704 737.506 780.216 739.173 779.174C740.84 778.132 742.701 777.611 744.755 777.611C746.511 777.611 748.044 777.968 749.354 778.683C750.693 779.397 751.72 780.335 752.435 781.496V777.968H760.07V802.884H752.435V799.356C751.691 800.517 750.649 801.455 749.309 802.169C747.999 802.884 746.466 803.241 744.71 803.241C742.686 803.241 740.84 802.72 739.173 801.678C737.506 800.606 736.182 799.103 735.199 797.168C734.247 795.204 733.771 792.941 733.771 790.381ZM752.435 790.426C752.435 788.521 751.899 787.018 750.827 785.916C749.785 784.815 748.505 784.264 746.987 784.264C745.469 784.264 744.174 784.815 743.103 785.916C742.061 786.988 741.54 788.476 741.54 790.381C741.54 792.286 742.061 793.805 743.103 794.936C744.174 796.037 745.469 796.588 746.987 796.588C748.505 796.588 749.785 796.037 750.827 794.936C751.899 793.834 752.435 792.331 752.435 790.426ZM764.076 790.381C764.076 787.821 764.552 785.574 765.505 783.639C766.487 781.704 767.812 780.216 769.479 779.174C771.146 778.132 773.006 777.611 775.06 777.611C776.697 777.611 778.186 777.953 779.525 778.638C780.894 779.323 781.966 780.246 782.74 781.406V769.842H790.375V802.884H782.74V799.312C782.026 800.502 780.999 801.455 779.659 802.169C778.349 802.884 776.816 803.241 775.06 803.241C773.006 803.241 771.146 802.72 769.479 801.678C767.812 800.606 766.487 799.103 765.505 797.168C764.552 795.204 764.076 792.941 764.076 790.381ZM782.74 790.426C782.74 788.521 782.204 787.018 781.133 785.916C780.091 784.815 778.811 784.264 777.293 784.264C775.774 784.264 774.48 784.815 773.408 785.916C772.366 786.988 771.845 788.476 771.845 790.381C771.845 792.286 772.366 793.805 773.408 794.936C774.48 796.037 775.774 796.588 777.293 796.588C778.811 796.588 780.091 796.037 781.133 794.936C782.204 793.834 782.74 792.331 782.74 790.426ZM794.381 790.381C794.381 787.821 794.857 785.574 795.81 783.639C796.792 781.704 798.117 780.216 799.784 779.174C801.451 778.132 803.311 777.611 805.365 777.611C807.121 777.611 808.655 777.968 809.964 778.683C811.304 779.397 812.331 780.335 813.045 781.496V777.968H820.681V802.884H813.045V799.356C812.301 800.517 811.259 801.455 809.92 802.169C808.61 802.884 807.077 803.241 805.321 803.241C803.296 803.241 801.451 802.72 799.784 801.678C798.117 800.606 796.792 799.103 795.81 797.168C794.857 795.204 794.381 792.941 794.381 790.381ZM813.045 790.426C813.045 788.521 812.509 787.018 811.438 785.916C810.396 784.815 809.116 784.264 807.598 784.264C806.08 784.264 804.785 784.815 803.713 785.916C802.671 786.988 802.15 788.476 802.15 790.381C802.15 792.286 802.671 793.805 803.713 794.936C804.785 796.037 806.08 796.588 807.598 796.588C809.116 796.588 810.396 796.037 811.438 794.936C812.509 793.834 813.045 792.331 813.045 790.426Z" fill="#8626F9"/>
<path d="M645.378 749.838L634.17 739.479L645.378 729.12H649.352L638.1 739.479L649.352 749.838H645.378Z" fill="white"/>
<path d="M859.971 801.187L871.179 790.828L859.971 780.469H855.997L867.249 790.828L855.997 801.187H859.971ZM832.783 814.761L847.339 765.377H844.169L829.702 814.761H832.783Z" fill="white"/>
<defs>
<linearGradient id="paint0_linear_666_1347" x1="740" y1="0" x2="740" y2="1440" gradientUnits="userSpaceOnUse">
<stop stop-color="#8626F9"/>
<stop offset="1" stop-color="#141521"/>
</linearGradient>
</defs>
</svg>
