<svg width="30" height="26" viewBox="0 0 30 26" fill="none" xmlns="http://www.w3.org/2000/svg">
<path d="M13.6034 20.7817C13.748 20.9258 13.8628 21.0971 13.9411 21.2857C14.0194 21.4743 14.0597 21.6764 14.0597 21.8806C14.0597 22.0848 14.0194 22.287 13.9411 22.4756C13.8628 22.6642 13.748 22.8354 13.6034 22.9796L12.9414 23.6415C12.2388 24.3468 11.4032 24.9058 10.4832 25.2862C9.56312 25.6665 8.57679 25.8607 7.58121 25.8575C6.08192 25.858 4.61617 25.4137 3.3694 24.581C2.12263 23.7483 1.15086 22.5645 0.57704 21.1793C0.0032196 19.7942 -0.14687 18.27 0.145761 16.7995C0.438391 15.329 1.16059 13.9784 2.22099 12.9185L6.7137 8.42578C7.6693 7.47032 8.86292 6.78764 10.171 6.44842C11.479 6.10919 12.854 6.12575 14.1535 6.49637C15.453 6.867 16.6298 7.57823 17.5621 8.55643C18.4944 9.53462 19.1484 10.7442 19.4562 12.06C19.5072 12.2601 19.5177 12.4683 19.4872 12.6725C19.4567 12.8767 19.3857 13.0727 19.2784 13.2491C19.1712 13.4255 19.0298 13.5788 18.8626 13.6998C18.6953 13.8209 18.5056 13.9074 18.3045 13.9542C18.1034 14.001 17.8951 14.0072 17.6915 13.9724C17.488 13.9377 17.2935 13.8626 17.1194 13.7517C16.9452 13.6408 16.795 13.4963 16.6774 13.3265C16.5599 13.1568 16.4774 12.9654 16.4348 12.7633C16.2521 11.9866 15.8653 11.2728 15.3144 10.6956C14.7634 10.1185 14.0683 9.69896 13.3009 9.48042C12.5335 9.26188 11.7217 9.25226 10.9493 9.45257C10.177 9.65287 9.47215 10.0558 8.90769 10.6198L4.41499 15.1125C3.78873 15.7382 3.36211 16.5356 3.18907 17.4039C3.01603 18.2721 3.10434 19.1721 3.44285 19.9901C3.78135 20.8081 4.35483 21.5074 5.09077 21.9995C5.82671 22.4916 6.69204 22.7544 7.57734 22.7546C8.16556 22.7563 8.74827 22.6413 9.29175 22.4162C9.83522 22.1912 10.3287 21.8606 10.7436 21.4437L11.4042 20.7817C11.5484 20.6369 11.7197 20.522 11.9084 20.4435C12.0971 20.3651 12.2995 20.3247 12.5038 20.3247C12.7081 20.3247 12.9105 20.3651 13.0992 20.4435C13.2879 20.522 13.4592 20.6369 13.6034 20.7817ZM27.7797 2.22003C26.3577 0.798543 24.4294 0 22.4188 0C20.4082 0 18.4799 0.798543 17.0579 2.22003L16.3973 2.88068C16.1058 3.17214 15.9421 3.56744 15.9421 3.97962C15.9421 4.3918 16.1058 4.7871 16.3973 5.07855C16.6887 5.37001 17.084 5.53375 17.4962 5.53375C17.9084 5.53375 18.3037 5.37001 18.5951 5.07855L19.2571 4.41661C20.0972 3.57653 21.2366 3.10458 22.4246 3.10458C23.6127 3.10458 24.752 3.57653 25.5921 4.41661C26.4322 5.25669 26.9042 6.39608 26.9042 7.58413C26.9042 8.77218 26.4322 9.91157 25.5921 10.7517L21.0917 15.2379C20.6769 15.655 20.1834 15.9856 19.6399 16.2107C19.0964 16.4357 18.5137 16.5507 17.9254 16.5489C16.9163 16.5481 15.9371 16.2066 15.1465 15.5795C14.3559 14.9525 13.8003 14.0767 13.5698 13.0943C13.4765 12.6935 13.2278 12.3461 12.8784 12.1286C12.5291 11.9111 12.1076 11.8414 11.7067 11.9346C11.3059 12.0279 10.9585 12.2766 10.7411 12.6259C10.5236 12.9753 10.4538 13.3968 10.547 13.7976C10.9363 15.4614 11.8763 16.9449 13.2144 18.0075C14.5525 19.0701 16.2103 19.6495 17.919 19.6517H17.9254C18.9215 19.6545 19.9082 19.4597 20.8285 19.0787C21.7487 18.6976 22.5844 18.1379 23.2869 17.4319L27.7797 12.9392C28.4836 12.2354 29.042 11.3999 29.4229 10.4802C29.8039 9.56064 30 8.575 30 7.5796C30 6.58421 29.8039 5.59856 29.4229 4.67896C29.042 3.75935 28.4836 2.9238 27.7797 2.22003Z" fill="#6366F1"/>
</svg>
